<?xml version="1.0" encoding="UTF-8" standalone="no"?>
<!-- Created with Inkscape (http://www.inkscape.org/) -->

<svg
   xmlns:osb="http://www.openswatchbook.org/uri/2009/osb"
   xmlns:dc="http://purl.org/dc/elements/1.1/"
   xmlns:cc="http://creativecommons.org/ns#"
   xmlns:rdf="http://www.w3.org/1999/02/22-rdf-syntax-ns#"
   xmlns:svg="http://www.w3.org/2000/svg"
   xmlns="http://www.w3.org/2000/svg"
   xmlns:sodipodi="http://sodipodi.sourceforge.net/DTD/sodipodi-0.dtd"
   xmlns:inkscape="http://www.inkscape.org/namespaces/inkscape"
   sodipodi:docname="twitter-new-tweet-symbolic.svg"
   inkscape:export-filename="/home/sam/source-symbolic.png"
   inkscape:export-xdpi="270"
   inkscape:export-ydpi="270"
   height="24"
   id="svg7384"
   style="enable-background:new"
   version="1.1"
   inkscape:version="0.91 r13725"
   width="24">
  <sodipodi:namedview
     inkscape:bbox-nodes="true"
     inkscape:bbox-paths="false"
     bordercolor="#666666"
     borderlayer="false"
     borderopacity="1"
     inkscape:current-layer="layer12"
     inkscape:cx="12.246409"
     inkscape:cy="11.812066"
     gridtolerance="10"
     inkscape:guide-bbox="true"
     guidetolerance="10"
     id="namedview88"
     inkscape:object-nodes="true"
     inkscape:object-paths="true"
     objecttolerance="10"
     pagecolor="#f7f7f7"
     inkscape:pageopacity="0"
     inkscape:pageshadow="2"
     showborder="true"
     showgrid="false"
     showguides="true"
     inkscape:showpageshadow="false"
     inkscape:snap-bbox="true"
     inkscape:snap-bbox-edge-midpoints="false"
     inkscape:snap-bbox-midpoints="true"
     inkscape:snap-center="false"
     inkscape:snap-global="true"
     inkscape:snap-grids="true"
     inkscape:snap-intersection-paths="true"
     inkscape:snap-midpoints="true"
     inkscape:snap-nodes="true"
     inkscape:snap-object-midpoints="true"
     inkscape:snap-others="true"
     inkscape:snap-page="false"
     inkscape:snap-smooth-nodes="true"
     inkscape:snap-to-guides="true"
     inkscape:window-height="711"
     inkscape:window-maximized="1"
     inkscape:window-width="1366"
     inkscape:window-x="0"
     inkscape:window-y="27"
     inkscape:zoom="1">
    <inkscape:grid
       color="#000000"
       dotted="false"
       empcolor="#0800ff"
       empopacity="0.4627451"
       empspacing="4"
       enabled="true"
       id="grid4866"
       opacity="0.16470588"
       originx="-24.000197"
       originy="-36.003357"
       snapvisiblegridlinesonly="true"
       spacingx="0.25px"
       spacingy="0.25px"
       type="xygrid"
       visible="true" />
  </sodipodi:namedview>
  <metadata
     id="metadata90">
    <rdf:RDF>
      <cc:Work
         rdf:about="">
        <dc:format>image/svg+xml</dc:format>
        <dc:type
           rdf:resource="http://purl.org/dc/dcmitype/StillImage" />
        <dc:title>Paper Symbolic Icon Theme</dc:title>
      </cc:Work>
    </rdf:RDF>
  </metadata>
  <title
     id="title8473">Paper Symbolic Icon Theme</title>
  <defs
     id="defs7386">
    <linearGradient
       id="linearGradient5606"
       osb:paint="solid">
      <stop
         id="stop5608"
         offset="0"
         style="stop-color:#000000;stop-opacity:1;" />
    </linearGradient>
  </defs>
  <g
     inkscape:groupmode="layer"
     id="layer12"
     inkscape:label="actions"
     style="display:inline"
     transform="translate(-265.0004,-172.99664)">
    <path
       style="fill:#777777;fill-opacity:1;fill-rule:evenodd;stroke:none;stroke-width:1px;stroke-linecap:butt;stroke-linejoin:miter;stroke-opacity:1"
       d="M 20.611328,2.1992188 C 17.579338,2.4180788 12.84962,5.8316181 10.21875,8.8613281 7.05015,12.510258 4.0005125,21.00356 4.5078125,22.1875 c 0.84132,0.0421 4.4445094,-6.18618 6.6621095,-8.09375 2.26921,-1.95196 6.247799,-0.796318 6.662109,-3.330078 -0.95184,-0.9518601 -3.804687,0 -3.804687,0 1.90369,-1.9036901 5.472071,-0.297238 5.769531,-2.7363282 0.22445,-1.4152401 -4.166016,-0.4160157 -4.166016,-0.4160157 1.22512,-1.27839 4.45482,-0.7635668 5,-1.6542969 1.05332,-1.7208699 1.010433,-3.7578124 0.564453,-3.7578124 -0.185909,-0.0149 -0.381854,-0.0146 -0.583984,0 z M 4,5.0039062 c 0,0 -1,0 -1,1 l 0,7.4999998 c 0,0.5 0.5,0.5 0.5,0.5 l 1,0 c 0,0 0.5,0 0.5,-0.5 l 0,-6.4999998 4.5,0 c 0.5,0 0.5,-0.5 0.5,-0.5 l 0,-1 c 0,0 0,-0.5 -0.5,-0.5 z m 15.5,7.9999998 c -0.5,0 -0.5,0.5 -0.5,0.5 l 0,4.5 -8.5,0 c 0,0 -0.5,-4e-5 -0.5,0.5 l 0,1 c 0,0.5 0.5,0.5 0.5,0.5 l 9.5,0 c 0,0 1,0 1,-1 l 0,-5.5 c 0,-0.5 -0.5,-0.5 -0.5,-0.5 z"
       transform="translate(265.0004,172.99664)"
       id="path4308"
       inkscape:connector-curvature="0"
       sodipodi:nodetypes="cscsccccccccssccscsccscscccssccsscs" />
  </g>
</svg>
