<?xml version="1.0" encoding="UTF-8" standalone="no"?>
<!-- Created with Inkscape (http://www.inkscape.org/) -->

<svg
   xmlns:dc="http://purl.org/dc/elements/1.1/"
   xmlns:cc="http://creativecommons.org/ns#"
   xmlns:rdf="http://www.w3.org/1999/02/22-rdf-syntax-ns#"
   xmlns:svg="http://www.w3.org/2000/svg"
   xmlns="http://www.w3.org/2000/svg"
   xmlns:xlink="http://www.w3.org/1999/xlink"
   version="1.1"
   width="24"
   height="24"
   id="svg3331">
  <defs
     id="defs3333">
    <linearGradient
       id="linearGradient6613-8-9">
      <stop
         id="stop6615-4-1"
         style="stop-color:#868686;stop-opacity:1"
         offset="0" />
      <stop
         id="stop6617-3-0"
         style="stop-color:#979797;stop-opacity:1"
         offset="1" />
    </linearGradient>
    <linearGradient
       x1="12.54946"
       y1="2.7817998"
       x2="12.54946"
       y2="22.124352"
       id="linearGradient3329"
       xlink:href="#linearGradient6613-8-9"
       gradientUnits="userSpaceOnUse"
       gradientTransform="matrix(0.96202532,0,0,0.96202532,0.4556962,7.974683)" />
  </defs>
  <metadata
     id="metadata3336">
    <rdf:RDF>
      <cc:Work
         rdf:about="">
        <dc:format>image/svg+xml</dc:format>
        <dc:type
           rdf:resource="http://purl.org/dc/dcmitype/StillImage" />
        <dc:title></dc:title>
      </cc:Work>
    </rdf:RDF>
  </metadata>
  <g
     transform="translate(0,-8)"
     id="layer1">
    <path
       d="m 12.721519,10.5 c -3.1292012,-0.05871 -6.3798435,1.258948 -8.1923081,3.888104 -1.8987953,2.644549 -2.2736762,6.157177 -1.526332,9.270378 0.5944745,2.499888 2.5815647,4.556337 5.0305418,5.302914 2.6511893,0.816663 5.5586443,0.679058 8.1912533,-0.140482 0.35608,-0.156366 1.06888,-0.19909 0.976275,-0.750333 -0.02039,-0.622959 0.04019,-1.256703 -0.02903,-1.873263 -0.224072,-0.464554 -0.777436,-0.07045 -1.104995,0.01761 -2.480622,0.820961 -5.348616,1.248675 -7.7863621,0.06629 C 6.3418152,25.329758 5.3700605,23.127247 5.3628052,21.045999 5.2386736,18.446924 6.1662914,15.562536 8.4792275,14.138284 10.443891,12.93919 12.98071,12.643974 15.15111,13.423073 c 2.120778,0.735489 3.450813,2.915984 3.510636,5.105956 0.02796,1.290301 -0.01866,2.727395 -0.830312,3.797483 -0.879415,0.945026 -1.751921,-0.339793 -1.50232,-1.253867 0.05808,-1.799653 0.194741,-3.602601 0.226727,-5.399696 C 16.34491,15.234747 15.712845,15.32398 15.321243,15.16202 13.26555,14.770757 10.890144,14.538293 9.1076669,15.86751 7.0932905,17.346402 6.5903576,20.23835 7.402385,22.502186 c 0.5628669,1.602486 2.2244869,2.650973 3.906159,2.57851 1.211815,0.02234 2.430488,-0.517022 3.156646,-1.503164 0.676967,1.518957 2.67815,1.841227 4.068276,1.185627 1.98564,-0.935446 2.781215,-3.287804 2.810045,-5.348168 0.139656,-2.529817 -0.708193,-5.19418 -2.668464,-6.877756 C 17.057261,11.095949 14.857233,10.479833 12.721519,10.5 z m -0.150316,6.76424 c 0.559803,0.01471 1.349541,-0.0093 1.081915,0.73601 -0.122382,1.398559 0.0701,2.969714 -0.847368,4.141853 -0.723312,0.82233 -2.393356,0.654402 -2.718544,-0.481591 -0.4525644,-1.431206 -0.1588889,-3.357073 1.253051,-4.141658 0.379261,-0.191795 0.809803,-0.255071 1.230946,-0.254614 z"
       id="path3223"
       style="font-size:23.72682953px;font-style:normal;font-variant:normal;font-weight:600;font-stretch:normal;text-align:start;line-height:125%;letter-spacing:0px;word-spacing:0px;writing-mode:lr-tb;text-anchor:start;color:#000000;fill:url(#linearGradient3329);fill-opacity:1;fill-rule:nonzero;stroke:none;stroke-width:1.03947365;marker:none;visibility:visible;display:inline;overflow:visible;enable-background:accumulate;font-family:Open Sans;-inkscape-font-specification:Open Sans Semi-Bold" />
    <path
       d="m 12.721519,11.011076 c -3.0157797,-0.05913 -6.1621867,1.224137 -7.8635741,3.79638 -1.7149718,2.481846 -2.0440155,5.720559 -1.3899505,8.614875 0.5544284,2.52961 2.6383459,4.573441 5.1404324,5.183095 2.6554822,0.66796 5.5306252,0.469345 8.0814462,-0.518401 0,-0.511076 0,-1.022152 0,-1.533227 -2.642924,0.944236 -5.682501,1.447572 -8.3504192,0.321241 C 6.2086142,25.977455 4.9697304,23.700928 4.873934,21.455901 4.6536382,18.678141 5.5268985,15.57392 7.9022783,13.911088 c 2.0133656,-1.394445 4.6878417,-1.78392 7.0320567,-1.105885 2.174488,0.612816 3.798526,2.577184 4.13443,4.789524 0.233145,1.635834 0.181255,3.446482 -0.723747,4.880286 -0.472783,0.810658 -1.870822,0.973131 -2.300464,0.03938 -0.417076,-1.112014 -0.137022,-2.313677 -0.13522,-3.469594 0.04974,-1.044469 0.09947,-2.088937 0.14921,-3.133406 -1.694204,-0.485157 -3.539474,-0.76561 -5.271449,-0.315197 -1.916947,0.516808 -3.198644,2.437227 -3.2251291,4.37996 -0.1438514,1.684365 0.5065716,3.645203 2.1879406,4.318384 1.5688605,0.632133 3.6236505,0.211416 4.5281245,-1.304973 0.09573,-0.286034 0.561275,-0.187825 0.516306,0.140304 0.525456,1.497851 2.519058,1.800287 3.75908,1.029717 1.78157,-1.07714 2.310624,-3.353084 2.284285,-5.301123 0.04374,-2.548212 -1.117913,-5.17469 -3.316261,-6.556241 -1.41407,-0.927677 -3.124935,-1.299729 -4.799922,-1.291144 z m -0.150316,5.742089 c 0.491509,0.07339 1.24381,-0.06776 1.623417,0.270569 0.07213,0.309863 -0.03573,0.686338 -0.02377,1.018316 -0.129681,1.508566 0.04806,3.206365 -0.982512,4.445007 -0.966893,1.092089 -3.160557,0.854454 -3.5967513,-0.640629 C 9.1287429,20.26693 9.3682443,18.212125 10.821853,17.22066 11.338088,16.885495 11.961621,16.751306 12.5712,16.753165 z"
       id="path3223-5"
       style="font-size:23.72682953px;font-style:normal;font-variant:normal;font-weight:600;font-stretch:normal;text-align:start;line-height:125%;letter-spacing:0px;word-spacing:0px;writing-mode:lr-tb;text-anchor:start;opacity:0.1;color:#000000;fill:none;stroke:#000000;stroke-width:1;stroke-linecap:butt;stroke-linejoin:miter;stroke-miterlimit:4;stroke-opacity:1;stroke-dasharray:none;stroke-dashoffset:0;marker:none;visibility:visible;display:inline;overflow:visible;enable-background:accumulate;font-family:Open Sans;-inkscape-font-specification:Open Sans Semi-Bold" />
  </g>
</svg>
