<?xml version="1.0" encoding="UTF-8" standalone="no"?>
<!-- Created with Inkscape (http://www.inkscape.org/) -->

<svg
   xmlns:dc="http://purl.org/dc/elements/1.1/"
   xmlns:cc="http://creativecommons.org/ns#"
   xmlns:rdf="http://www.w3.org/1999/02/22-rdf-syntax-ns#"
   xmlns:svg="http://www.w3.org/2000/svg"
   xmlns="http://www.w3.org/2000/svg"
   xmlns:xlink="http://www.w3.org/1999/xlink"
   xmlns:sodipodi="http://sodipodi.sourceforge.net/DTD/sodipodi-0.dtd"
   xmlns:inkscape="http://www.inkscape.org/namespaces/inkscape"
   version="1.1"
   width="24"
   height="24"
   id="svg6679"
   inkscape:version="0.48.3.1 r9886"
   sodipodi:docname="twitter-home.svg">
  <sodipodi:namedview
     pagecolor="#ffffff"
     bordercolor="#666666"
     borderopacity="1"
     objecttolerance="10"
     gridtolerance="10"
     guidetolerance="10"
     inkscape:pageopacity="0"
     inkscape:pageshadow="2"
     inkscape:window-width="1440"
     inkscape:window-height="856"
     id="namedview3086"
     showgrid="false"
     inkscape:zoom="3.4479167"
     inkscape:cx="-11.059048"
     inkscape:cy="12"
     inkscape:window-x="0"
     inkscape:window-y="22"
     inkscape:window-maximized="1"
     inkscape:current-layer="svg6679" />
  <defs
     id="defs6681">
    <linearGradient
       id="linearGradient6613">
      <stop
         id="stop6615"
         style="stop-color:#868686;stop-opacity:1"
         offset="0" />
      <stop
         id="stop6617"
         style="stop-color:#979797;stop-opacity:1"
         offset="1" />
    </linearGradient>
    <linearGradient
       x1="12.54946"
       y1="2.7817998"
       x2="12.54946"
       y2="22.124352"
       id="linearGradient6677"
       xlink:href="#linearGradient6613"
       gradientUnits="userSpaceOnUse"
       gradientTransform="translate(0,8)" />
  </defs>
  <metadata
     id="metadata6684">
    <rdf:RDF>
      <cc:Work
         rdf:about="">
        <dc:format>image/svg+xml</dc:format>
        <dc:type
           rdf:resource="http://purl.org/dc/dcmitype/StillImage" />
        <dc:title></dc:title>
      </cc:Work>
    </rdf:RDF>
  </metadata>
  <path
     style="fill:#8d8d8d;fill-opacity:1;stroke:#808080;stroke-width:0.90123123;stroke-miterlimit:4;stroke-opacity:1;stroke-dasharray:none"
     d="m 7.5595839,4.100469 c -0.8973668,0 -1.6334817,0.7361149 -1.6334817,1.6334817 l 0,0.535106 -1.5489912,0 c -1.5359089,0 -2.7881842,1.2522753 -2.7881842,2.7881842 l 0,8.2237351 c 0,1.535909 1.2522753,2.76002 2.7881842,2.76002 l 15.320931,0 c 1.535909,0 2.788184,-1.224111 2.788184,-2.76002 l 0,-8.2237351 c 0,-1.5359089 -1.252275,-2.7881842 -2.788184,-2.7881842 l -1.548991,0 0,-0.535106 c 0,-0.8973668 -0.736115,-1.6334817 -1.633482,-1.6334817 l -8.9559851,0 z"
     id="rect3885"
     inkscape:connector-curvature="0" />
  <path
     sodipodi:type="arc"
     style="fill:none;stroke:#ffffff;stroke-width:2.0300703;stroke-miterlimit:4;stroke-opacity:1;stroke-dasharray:none"
     id="path3878"
     sodipodi:cx="-36.709736"
     sodipodi:cy="-2.7632439"
     sodipodi:rx="7.2804227"
     sodipodi:ry="7.2804227"
     d="m -29.429313,-2.7632439 a 7.2804227,7.2804227 0 1 1 -14.560846,0 7.2804227,7.2804227 0 1 1 14.560846,0 z"
     transform="matrix(0.70791483,0,0,0.66013937,38.024943,14.205296)" />
</svg>
