<?xml version="1.0" encoding="UTF-8" standalone="no"?>
<!-- Created with Inkscape (http://www.inkscape.org/) -->

<svg
   xmlns:dc="http://purl.org/dc/elements/1.1/"
   xmlns:cc="http://creativecommons.org/ns#"
   xmlns:rdf="http://www.w3.org/1999/02/22-rdf-syntax-ns#"
   xmlns:svg="http://www.w3.org/2000/svg"
   xmlns="http://www.w3.org/2000/svg"
   xmlns:sodipodi="http://sodipodi.sourceforge.net/DTD/sodipodi-0.dtd"
   xmlns:inkscape="http://www.inkscape.org/namespaces/inkscape"
   version="1.1"
   width="22"
   height="22"
   id="svg3810"
   inkscape:version="0.91 r13725"
   sodipodi:docname="twitter-verified.svg">
  <sodipodi:namedview
     pagecolor="#ffffff"
     bordercolor="#666666"
     borderopacity="1"
     objecttolerance="10"
     gridtolerance="10"
     guidetolerance="10"
     inkscape:pageopacity="0"
     inkscape:pageshadow="2"
     inkscape:window-width="1366"
     inkscape:window-height="712"
     id="namedview7"
     showgrid="false"
     inkscape:object-nodes="true"
     inkscape:snap-smooth-nodes="true"
     inkscape:zoom="1"
     inkscape:cx="11.000284"
     inkscape:cy="11.005513"
     inkscape:window-x="0"
     inkscape:window-y="30"
     inkscape:window-maximized="1"
     inkscape:current-layer="svg3810">
    <inkscape:grid
       type="xygrid"
       id="grid8067"
       empspacing="4" />
  </sodipodi:namedview>
  <defs
     id="defs3812" />
  <metadata
     id="metadata3815">
    <rdf:RDF>
      <cc:Work
         rdf:about="">
        <dc:format>image/svg+xml</dc:format>
        <dc:type
           rdf:resource="http://purl.org/dc/dcmitype/StillImage" />
        <dc:title></dc:title>
      </cc:Work>
    </rdf:RDF>
  </metadata>
  <path
     style="color:#000000;clip-rule:nonzero;display:inline;overflow:visible;visibility:visible;opacity:1;isolation:auto;mix-blend-mode:normal;color-interpolation:sRGB;color-interpolation-filters:linearRGB;solid-color:#000000;solid-opacity:1;fill:#77c7f7;fill-opacity:1;fill-rule:evenodd;stroke:none;stroke-width:4;stroke-linecap:round;stroke-linejoin:round;stroke-miterlimit:4;stroke-dasharray:none;stroke-dashoffset:0;stroke-opacity:1;color-rendering:auto;image-rendering:auto;shape-rendering:auto;text-rendering:auto;enable-background:accumulate"
     d="M 11,1 C 9.6306177,1.0002811 8.356549,1.7010558 7.6230469,2.8574219 6.2895983,2.5607273 4.896942,2.9650469 3.9296875,3.9296875 2.9623677,4.8978012 2.5571395,6.2932598 2.8554688,7.6289062 1.7016049,8.3617555 1.0018601,9.6330813 1,11 c 2.812e-4,1.369382 0.7010558,2.643451 1.8574219,3.376953 -0.2966945,1.333448 0.1076251,2.726105 1.0722656,3.693359 0.9681136,0.96732 2.3635723,1.372548 3.6992187,1.074219 C 8.3617555,20.298395 9.6330813,20.99814 11,21 c 1.369382,-2.81e-4 2.643451,-0.701056 3.376953,-1.857422 1.333449,0.296694 2.726105,-0.107625 3.693359,-1.072266 0.96732,-0.968113 1.372548,-2.363572 1.074219,-3.699218 C 20.298395,13.638245 20.99814,12.366919 21,11 20.999719,9.6306177 20.298944,8.356549 19.142578,7.6230469 19.439272,6.2895983 19.034953,4.8969419 18.070312,3.9296875 17.102198,2.962368 15.70674,2.5571398 14.371094,2.8554688 13.638245,1.7016048 12.366919,1.00186 11,1 Z"
     id="path8214"
     inkscape:connector-curvature="0"
     sodipodi:nodetypes="ccccccccccccccccc" />
  <path
     style="color:#000000;font-style:normal;font-variant:normal;font-weight:normal;font-stretch:normal;font-size:medium;line-height:normal;font-family:sans-serif;text-indent:0;text-align:start;text-decoration:none;text-decoration-line:none;text-decoration-style:solid;text-decoration-color:#000000;letter-spacing:normal;word-spacing:normal;text-transform:none;direction:ltr;block-progression:tb;writing-mode:lr-tb;baseline-shift:baseline;text-anchor:start;white-space:normal;clip-rule:nonzero;display:inline;overflow:visible;visibility:visible;opacity:1;isolation:auto;mix-blend-mode:normal;color-interpolation:sRGB;color-interpolation-filters:linearRGB;solid-color:#000000;solid-opacity:1;fill:#ffffff;fill-opacity:1;fill-rule:evenodd;stroke:none;stroke-width:2;stroke-linecap:round;stroke-linejoin:round;stroke-miterlimit:4;stroke-dasharray:none;stroke-dashoffset:0;stroke-opacity:1;color-rendering:auto;image-rendering:auto;shape-rendering:auto;text-rendering:auto;enable-background:accumulate"
     d="M 14.988281,6.9882812 A 1.0001,1.0001 0 0 0 14.232422,7.359375 L 9.9335938,12.519531 7.7070312,10.292969 a 1.0001,1.0001 0 1 0 -1.4140624,1.414062 l 3,3 a 1.0001,1.0001 0 0 0 1.4746092,-0.06641 l 5,-6 A 1.0001,1.0001 0 0 0 14.988281,6.9882812 Z"
     id="path8228"
     inkscape:connector-curvature="0" />
</svg>
