<?xml version="1.0" encoding="UTF-8" standalone="no"?>
<!-- Created with Inkscape (http://www.inkscape.org/) -->

<svg
   xmlns:dc="http://purl.org/dc/elements/1.1/"
   xmlns:cc="http://creativecommons.org/ns#"
   xmlns:rdf="http://www.w3.org/1999/02/22-rdf-syntax-ns#"
   xmlns:svg="http://www.w3.org/2000/svg"
   xmlns="http://www.w3.org/2000/svg"
   xmlns:sodipodi="http://sodipodi.sourceforge.net/DTD/sodipodi-0.dtd"
   xmlns:inkscape="http://www.inkscape.org/namespaces/inkscape"
   version="1.1"
   width="16"
   height="16"
   id="svg3810"
   inkscape:version="0.91 r13725"
   sodipodi:docname="twitter-retweet-symbolic.svg">
  <sodipodi:namedview
     pagecolor="#ffffff"
     bordercolor="#666666"
     borderopacity="1"
     objecttolerance="10"
     gridtolerance="10"
     guidetolerance="10"
     inkscape:pageopacity="0"
     inkscape:pageshadow="2"
     inkscape:window-width="1366"
     inkscape:window-height="712"
     id="namedview28457"
     showgrid="false"
     inkscape:object-nodes="true"
     inkscape:snap-smooth-nodes="true"
     showborder="false"
     inkscape:zoom="1"
     inkscape:cx="7.0243642"
     inkscape:cy="9.1390873"
     inkscape:window-x="0"
     inkscape:window-y="30"
     inkscape:window-maximized="0"
     inkscape:current-layer="svg3810">
    <inkscape:grid
       type="xygrid"
       id="grid32934" />
  </sodipodi:namedview>
  <defs
     id="defs3812" />
  <metadata
     id="metadata3815">
    <rdf:RDF>
      <cc:Work
         rdf:about="">
        <dc:format>image/svg+xml</dc:format>
        <dc:type
           rdf:resource="http://purl.org/dc/dcmitype/StillImage" />
        <dc:title></dc:title>
      </cc:Work>
    </rdf:RDF>
  </metadata>
  <g
     transform="matrix(0.66666667,0,0,0.66666667,3.9463276,1.1468926)"
     id="layer1"
     style="stroke-width:1.5" />
  <path
     style="color:#000000;font-style:normal;font-variant:normal;font-weight:normal;font-stretch:normal;font-size:medium;line-height:normal;font-family:sans-serif;text-indent:0;text-align:start;text-decoration:none;text-decoration-line:none;text-decoration-style:solid;text-decoration-color:#000000;letter-spacing:normal;word-spacing:normal;text-transform:none;direction:ltr;block-progression:tb;writing-mode:lr-tb;baseline-shift:baseline;text-anchor:start;white-space:normal;clip-rule:nonzero;display:inline;overflow:visible;visibility:visible;opacity:1;isolation:auto;mix-blend-mode:normal;color-interpolation:sRGB;color-interpolation-filters:linearRGB;solid-color:#000000;solid-opacity:1;fill:#aab8c2;fill-opacity:1;fill-rule:evenodd;stroke:none;stroke-width:3;stroke-linecap:round;stroke-linejoin:round;stroke-miterlimit:4;stroke-dasharray:none;stroke-dashoffset:0;stroke-opacity:1;color-rendering:auto;image-rendering:auto;shape-rendering:auto;text-rendering:auto;enable-background:accumulate"
     d="M 2.0273438,3 C 1.4644353,2.9846601 0.99984733,3.4368826 1,4 l 0,4 0,2 c 0,2.190054 1.8099458,4 4,4 l 5,0 c 0,0 1,0 1,-1 l 0,-1 c 0,-1 -1,-1 -1,-1 L 5,11 C 4.4200542,11 4.4100837,10.410084 4,10 L 4,9 5,9 C 5.8239437,9.000238 6.2946938,8.0598855 5.8007812,7.4003906 l -3,-4 C 2.6176695,3.1557835 2.3327837,3.0083047 2.0273438,3 Z M 7,2 C 6,2 6,3 6,3 l 0,1 c 0,1 1,1 1,1 l 5,0 c 0.579946,0 1,0.4200542 1,1 l 0,1 -1,0 c -0.823943,-2.373e-4 -1.294693,0.9401142 -0.800781,1.599609 l 3,4 C 14.775524,13.369622 16.000338,12.961794 16,12 L 16,8 16,6 C 16,3.8099458 14.190054,2 12,2 Z"
     id="rect8165"
     inkscape:connector-curvature="0"
     sodipodi:nodetypes="cccsscsscsscccccscscssccccccsss" />
</svg>
