<?xml version="1.0" encoding="UTF-8" standalone="no"?>
<!-- Created with Inkscape (http://www.inkscape.org/) -->

<svg
   xmlns:dc="http://purl.org/dc/elements/1.1/"
   xmlns:cc="http://creativecommons.org/ns#"
   xmlns:rdf="http://www.w3.org/1999/02/22-rdf-syntax-ns#"
   xmlns:svg="http://www.w3.org/2000/svg"
   xmlns="http://www.w3.org/2000/svg"
   xmlns:xlink="http://www.w3.org/1999/xlink"
   xmlns:sodipodi="http://sodipodi.sourceforge.net/DTD/sodipodi-0.dtd"
   xmlns:inkscape="http://www.inkscape.org/namespaces/inkscape"
   width="24"
   height="24"
   id="svg3933"
   version="1.1"
   inkscape:version="0.48.4 r9939"
   sodipodi:docname="twitter-profile.svg">
  <defs
     id="defs3935">
    <linearGradient
       inkscape:collect="always"
       id="linearGradient6613-0-3">
      <stop
         style="stop-color:#868686;stop-opacity:1"
         offset="0"
         id="stop6615-3-9" />
      <stop
         style="stop-color:#979797;stop-opacity:1"
         offset="1"
         id="stop6617-7-1" />
    </linearGradient>
    <linearGradient
       y2="15.630756"
       x2="14.350052"
       y1="-1.2572832"
       x1="14.350052"
       gradientTransform="translate(0,-8.0000004)"
       gradientUnits="userSpaceOnUse"
       id="linearGradient3931"
       xlink:href="#linearGradient6613-0-3"
       inkscape:collect="always" />
  </defs>
  <sodipodi:namedview
     id="base"
     pagecolor="#ffffff"
     bordercolor="#666666"
     borderopacity="1.0"
     inkscape:pageopacity="0.0"
     inkscape:pageshadow="2"
     inkscape:zoom="22.197802"
     inkscape:cx="8"
     inkscape:cy="8"
     inkscape:current-layer="layer1"
     showgrid="true"
     inkscape:grid-bbox="true"
     inkscape:document-units="px"
     inkscape:window-width="674"
     inkscape:window-height="430"
     inkscape:window-x="0"
     inkscape:window-y="53"
     inkscape:window-maximized="0" />
  <metadata
     id="metadata3938">
    <rdf:RDF>
      <cc:Work
         rdf:about="">
        <dc:format>image/svg+xml</dc:format>
        <dc:type
           rdf:resource="http://purl.org/dc/dcmitype/StillImage" />
        <dc:title></dc:title>
      </cc:Work>
    </rdf:RDF>
  </metadata>
  <g
     id="layer1"
     inkscape:label="Layer 1"
     inkscape:groupmode="layer"
     transform="translate(0,8)">
    <path
       style="opacity:1;color:#000000;fill:url(#linearGradient3931);fill-opacity:1;fill-rule:nonzero;stroke:none;stroke-width:1;marker:none;visibility:visible;display:inline;overflow:visible;enable-background:accumulate"
       d="m 12.015593,-5.0153504 c -2.6171434,0 -4.7506735,2.215714 -4.8280574,4.984305 -0.064339,0.01658 -0.1269682,0.04514 -0.1874974,0.07812 -0.6018466,0.327938 -0.7555494,1.34981 -0.3437452,2.296843 0.3312854,0.761864 0.9191321,1.233329 1.4531047,1.218733 0.4019693,2.5318524 2.0020173,4.4218134 3.9061953,4.4218134 0.0052,0 0.0104,2.9e-5 0.01565,0 1.904178,0 3.504226,-1.889961 3.906195,-4.4218134 0.533973,0.01459 1.121819,-0.456868 1.453105,-1.218733 0.411804,-0.947028 0.258101,-1.9689 -0.343745,-2.296839 -0.06053,-0.03298 -0.123159,-0.06154 -0.187498,-0.07812 -0.07738,-2.76859 -2.210914,-4.984305 -4.828057,-4.984305 -0.0052,-1.7e-5 -0.01045,0 -0.01565,0 z M 15.421795,8.390713 c -0.412699,0.982358 -1.821179,1.718725 -3.499951,1.718725 -1.671216,0 -3.0645468,-0.727488 -3.4843259,-1.703101 -3.5272556,0.362009 -6.0973046,1.249024 -6.4061603,2.296843 -0.004,0.0097 0.0035,0.02124 0,0.03125 -0.0096,0.03779 -0.01195,0.07116 -0.01565,0.109373 -0.002,0.01729 -0.01565,0.02909 -0.01565,0.04687 -1.3e-4,0.0057 0,0.0099 0,0.01562 l 0,2.593714 C 2.0000578,13.777003 2.2230547,14 2.5000508,14 l 18.9997342,0 c 0.276996,0 0.499993,-0.222997 0.499993,-0.499993 l 0,-2.593714 c 0,-0.01136 5e-4,-0.01993 0,-0.03125 -0.003,-0.06073 -0.02915,-0.112181 -0.04685,-0.171873 C 21.637567,9.642689 19.012964,8.744029 15.421769,8.390703 z"
       id="path3002"
       inkscape:connector-curvature="0" />
    <path
       transform="translate(0,-16)"
       sodipodi:type="inkscape:offset"
       inkscape:radius="-0.50169683"
       inkscape:original="M 12 11 C 9.3828566 11 7.2648839 13.200159 7.1875 15.96875 C 7.123161 15.98533 7.0605292 16.02952 7 16.0625 C 6.3981534 16.390438 6.2444458 17.396717 6.65625 18.34375 C 6.9875354 19.105614 7.5910274 19.577096 8.125 19.5625 C 8.5269693 22.094352 10.095822 24 12 24 C 12.0052 24 12.026 24.000029 12.03125 24 C 13.935428 24 15.535531 22.094352 15.9375 19.5625 C 16.471473 19.57709 17.043714 19.105615 17.375 18.34375 C 17.786804 17.396722 17.633096 16.390439 17.03125 16.0625 C 16.97072 16.02952 16.908089 15.98533 16.84375 15.96875 C 16.76637 13.20016 14.648393 11 12.03125 11 C 12.02605 10.999983 12.0052 11 12 11 z M 8.4375 24.40625 C 4.9102444 24.768259 2.3401057 25.670931 2.03125 26.71875 C 2.02725 26.72845 2.03475 26.73999 2.03125 26.75 C 2.02165 26.78779 2.03495 26.805537 2.03125 26.84375 C 2.02925 26.86104 2 26.88847 2 26.90625 L 2 29.5 C 2 29.776996 2.2230039 30 2.5 30 L 21.5 30 C 21.776996 30 22 29.776996 22 29.5 L 22 26.90625 C 22 26.89489 22.0005 26.88632 22 26.875 C 21.997 26.81427 21.9552 26.778442 21.9375 26.71875 C 21.622139 25.658269 18.997445 24.759576 15.40625 24.40625 C 14.993551 25.388608 13.585022 26.125 11.90625 26.125 C 10.235034 26.125 8.8572791 25.381863 8.4375 24.40625 z "
       style="opacity:0.1;color:#000000;fill:none;stroke:#000000;stroke-width:1;stroke-linecap:butt;stroke-linejoin:miter;stroke-miterlimit:4;stroke-opacity:1;stroke-dasharray:none;stroke-dashoffset:0;marker:none;visibility:visible;display:inline;overflow:visible;enable-background:accumulate"
       id="path3913"
       d="m 12,11.5 c -2.3359684,0 -4.2420519,1.948304 -4.3125,4.46875 a 0.50174699,0.50174699 0 0 1 -0.375,0.5 c 0.068072,-0.01754 0.035685,-0.02225 -0.0625,0.03125 -0.1273622,0.0694 -0.2667955,0.229204 -0.3125,0.53125 -0.045705,0.302046 0.016613,0.732008 0.1875,1.125 0.2726201,0.62695 0.7713402,0.9125 1,0.90625 a 0.50174699,0.50174699 0 0 1 0.5,0.40625 c 0.1881921,1.185351 0.6421935,2.229287 1.25,2.9375 C 10.482807,23.114463 11.215272,23.5 12,23.5 c 0.0071,0 0.03517,-2.2e-5 0.03125,0 0.784728,0 1.50964,-0.384874 2.125,-1.09375 0.61536,-0.708876 1.093374,-1.754138 1.28125,-2.9375 a 0.50174699,0.50174699 0 0 1 0.5,-0.40625 c 0.229203,0.0063 0.691529,-0.268719 0.96875,-0.90625 0.170887,-0.392989 0.233205,-0.822954 0.1875,-1.125 -0.04571,-0.302046 -0.185138,-0.461852 -0.3125,-0.53125 -0.09819,-0.0535 -0.130573,-0.04879 -0.0625,-0.03125 a 0.50174699,0.50174699 0 0 1 -0.375,-0.5 C 16.273306,13.448306 14.367218,11.5 12.03125,11.5 c 2.78e-4,10e-7 -0.02496,0 -0.03125,0 z M 8.21875,24.9375 C 6.6127664,25.119674 5.1904308,25.422019 4.1875,25.78125 3.6550561,25.971961 3.2541233,26.175252 2.96875,26.375 c -0.2669813,0.186874 -0.3980059,0.3656 -0.4375,0.46875 5.47e-4,0.01306 2.802e-4,0.01579 0,0.03125 -2.802e-4,0.01546 0.00163,0.01447 0,0.03125 C 2.5203022,27.000894 2.5157073,26.963605 2.5,27 l 0,2.5 19,0 0,-2.5625 c -0.0055,-0.01167 0.0058,-0.01669 0,-0.03125 -0.0082,-0.02038 -0.0236,-0.0055 -0.03125,-0.03125 C 21.438588,26.773571 21.292044,26.576343 21,26.375 20.707956,26.173657 20.26251,25.971959 19.71875,25.78125 18.692939,25.421475 17.264406,25.115798 15.625,24.9375 c -0.666936,1.05057 -2.076611,1.6875 -3.71875,1.6875 -1.632521,0 -3.0198799,-0.65356 -3.6875,-1.6875 z" />
  </g>
</svg>
