<?xml version="1.0" encoding="UTF-8" standalone="no"?>
<!-- Created with Inkscape (http://www.inkscape.org/) -->

<svg
   xmlns:dc="http://purl.org/dc/elements/1.1/"
   xmlns:cc="http://creativecommons.org/ns#"
   xmlns:rdf="http://www.w3.org/1999/02/22-rdf-syntax-ns#"
   xmlns:svg="http://www.w3.org/2000/svg"
   xmlns="http://www.w3.org/2000/svg"
   xmlns:xlink="http://www.w3.org/1999/xlink"
   xmlns:sodipodi="http://sodipodi.sourceforge.net/DTD/sodipodi-0.dtd"
   xmlns:inkscape="http://www.inkscape.org/namespaces/inkscape"
   width="24"
   height="24"
   id="svg3908"
   version="1.1"
   inkscape:version="0.48.4 r9939"
   sodipodi:docname="twitter-search.svg">
  <defs
     id="defs3910">
    <linearGradient
       id="linearGradient6613-8-6">
      <stop
         id="stop6615-4-6"
         style="stop-color:#868686;stop-opacity:1"
         offset="0" />
      <stop
         id="stop6617-3-5"
         style="stop-color:#979797;stop-opacity:1"
         offset="1" />
    </linearGradient>
    <linearGradient
       y2="22.124352"
       x2="12.54946"
       y1="2.7817998"
       x1="12.54946"
       gradientUnits="userSpaceOnUse"
       id="linearGradient3906"
       xlink:href="#linearGradient6613-8-6"
       inkscape:collect="always" />
    <linearGradient
       inkscape:collect="always"
       xlink:href="#linearGradient6613-8-6"
       id="linearGradient4483"
       gradientUnits="userSpaceOnUse"
       x1="12.54946"
       y1="2.7817998"
       x2="12.54946"
       y2="22.124352" />
  </defs>
  <sodipodi:namedview
     id="base"
     pagecolor="#ffffff"
     bordercolor="#666666"
     borderopacity="1.0"
     inkscape:pageopacity="0.0"
     inkscape:pageshadow="2"
     inkscape:zoom="27.969231"
     inkscape:cx="7.8386139"
     inkscape:cy="12.884159"
     inkscape:current-layer="layer1"
     showgrid="true"
     inkscape:grid-bbox="true"
     inkscape:document-units="px"
     inkscape:window-width="865"
     inkscape:window-height="698"
     inkscape:window-x="0"
     inkscape:window-y="53"
     inkscape:window-maximized="0">
    <inkscape:grid
       type="xygrid"
       id="grid3966"
       empspacing="5"
       visible="true"
       enabled="true"
       snapvisiblegridlinesonly="true" />
  </sodipodi:namedview>
  <metadata
     id="metadata3913">
    <rdf:RDF>
      <cc:Work
         rdf:about="">
        <dc:format>image/svg+xml</dc:format>
        <dc:type
           rdf:resource="http://purl.org/dc/dcmitype/StillImage" />
      </cc:Work>
    </rdf:RDF>
  </metadata>
  <g
     id="layer1"
     inkscape:label="Layer 1"
     inkscape:groupmode="layer"
     transform="translate(0,8)">
    <path
       style="color:#000000;fill:url(#linearGradient4483);fill-opacity:1;fill-rule:nonzero;stroke:none;stroke-width:1;marker:none;visibility:visible;display:inline;overflow:visible;enable-background:accumulate"
       d="M 9 3 C 5.1340067 3 2 6.1340067 2 10 C 2 13.865993 5.1340067 17 9 17 C 10.537851 17 11.938747 16.496883 13.09375 15.65625 L 14.03125 16.5625 C 13.96736 17.174419 14.175879 17.863378 14.6875 18.375 L 17.125 20.8125 C 17.964251 21.651752 19.234406 21.734345 19.96875 21 C 20.703095 20.265656 20.620502 18.995501 19.78125 18.15625 L 17.34375 15.71875 C 16.832128 15.207129 16.143169 14.99861 15.53125 15.0625 L 14.625 14.15625 C 15.490442 12.991414 16 11.562646 16 10 C 16 6.1340067 12.865993 3 9 3 z M 9 5 C 11.761424 5 14 7.2385763 14 10 C 14 12.761424 11.761424 15 9 15 C 6.2385763 15 4 12.761424 4 10 C 4 7.2385763 6.2385763 5 9 5 z "
       transform="translate(0,-8)"
       id="path3002" />
    <path
       transform="translate(0,-8)"
       sodipodi:type="inkscape:offset"
       inkscape:radius="-0.52517432"
       inkscape:original="M 9 3 C 5.1340067 3 2 6.1340067 2 10 C 2 13.865993 5.1340067 17 9 17 C 10.537851 17 11.938747 16.496883 13.09375 15.65625 L 14.03125 16.5625 C 13.96736 17.174419 14.175879 17.863378 14.6875 18.375 L 17.125 20.8125 C 17.964251 21.651752 19.234406 21.734345 19.96875 21 C 20.703095 20.265656 20.620502 18.995501 19.78125 18.15625 L 17.34375 15.71875 C 16.832128 15.207129 16.143169 14.99861 15.53125 15.0625 L 14.625 14.15625 C 15.490442 12.991414 16 11.562646 16 10 C 16 6.1340067 12.865993 3 9 3 z "
       style="opacity:0.1;color:#000000;fill:none;stroke:#000000;stroke-width:1;stroke-linecap:butt;stroke-linejoin:miter;stroke-miterlimit:4;stroke-opacity:1;stroke-dasharray:none;stroke-dashoffset:0;marker:none;visibility:visible;display:inline;overflow:visible;enable-background:accumulate"
       id="path3888"
       d="m 9,3.53125 c -3.582168,0 -6.46875,2.886582 -6.46875,6.46875 0,3.582168 2.886582,6.46875 6.46875,6.46875 1.423308,0 2.708997,-0.469594 3.78125,-1.25 a 0.52522684,0.52522684 0 0 1 0.6875,0.0625 l 0.9375,0.90625 a 0.52522684,0.52522684 0 0 1 0.15625,0.4375 c -0.04741,0.454043 0.104619,0.979618 0.5,1.375 L 17.5,20.4375 c 0.664092,0.664093 1.587432,0.693819 2.09375,0.1875 0.506319,-0.506318 0.476593,-1.429658 -0.1875,-2.09375 l -2.4375,-2.4375 c -0.395382,-0.395381 -0.920957,-0.547406 -1.375,-0.5 A 0.52522684,0.52522684 0 0 1 15.15625,15.4375 L 14.25,14.53125 a 0.52522684,0.52522684 0 0 1 -0.03125,-0.6875 c 0.801689,-1.079028 1.25,-2.395272 1.25,-3.84375 C 15.46875,6.417832 12.582168,3.53125 9,3.53125 z" />
  </g>
</svg>
