<?xml version="1.0" encoding="UTF-8" standalone="no"?>
<!-- Created with Inkscape (http://www.inkscape.org/) -->

<svg
   xmlns:dc="http://purl.org/dc/elements/1.1/"
   xmlns:cc="http://creativecommons.org/ns#"
   xmlns:rdf="http://www.w3.org/1999/02/22-rdf-syntax-ns#"
   xmlns:svg="http://www.w3.org/2000/svg"
   xmlns="http://www.w3.org/2000/svg"
   xmlns:xlink="http://www.w3.org/1999/xlink"
   version="1.1"
   width="24"
   height="24"
   id="svg6679">
  <defs
     id="defs6681">
    <linearGradient
       id="linearGradient6613">
      <stop
         id="stop6615"
         style="stop-color:#868686;stop-opacity:1"
         offset="0" />
      <stop
         id="stop6617"
         style="stop-color:#979797;stop-opacity:1"
         offset="1" />
    </linearGradient>
    <linearGradient
       x1="12.54946"
       y1="2.7817998"
       x2="12.54946"
       y2="22.124352"
       id="linearGradient6677"
       xlink:href="#linearGradient6613"
       gradientUnits="userSpaceOnUse"
       gradientTransform="translate(0,8)" />
  </defs>
  <metadata
     id="metadata6684">
    <rdf:RDF>
      <cc:Work
         rdf:about="">
        <dc:format>image/svg+xml</dc:format>
        <dc:type
           rdf:resource="http://purl.org/dc/dcmitype/StillImage" />
        <dc:title></dc:title>
      </cc:Work>
    </rdf:RDF>
  </metadata>
  <g
     transform="translate(0,-8)"
     id="layer1">
    <path
       d="M 12,11 1.5,21.25 3.5,23.294972 5,22 l 1,8 12,0 1,-8 1.5,1.25 2,-2 z m 0,7 c 1.656854,0 3,1.343146 3,3 0,1.656854 -1.343146,3 -3,3 -1.656854,0 -3,-1.343146 -3,-3 0,-1.656854 1.343146,-3 3,-3 z m 0,8 c 0.552285,0 1,0.447715 1,1 0,0.552285 -0.447715,1 -1,1 -0.552285,0 -1,-0.447715 -1,-1 0,-0.552285 0.447715,-1 1,-1 z"
       id="path6073"
       style="color:#000000;fill:url(#linearGradient6677);fill-opacity:1;fill-rule:nonzero;stroke:none;marker:none;visibility:visible;display:inline;overflow:visible;enable-background:accumulate" />
    <path
       d="M 12,11.75 2.25,21.25 3.53125,22.59375 5.40625,21 6.4375,29.5 17.5625,29.5 18.625,21.03125 20.5,22.5625 21.78125,21.25 12,11.75 z m 0,5.75 c 1.932997,0 3.5,1.567003 3.5,3.5 0,1.932997 -1.567003,3.5 -3.5,3.5 -1.932997,0 -3.5,-1.567003 -3.5,-3.5 0,-1.932997 1.567003,-3.5 3.5,-3.5 z m 0,8 c 0.828427,0 1.5,0.671573 1.5,1.5 0,0.828427 -0.671573,1.5 -1.5,1.5 -0.828427,0 -1.5,-0.671573 -1.5,-1.5 0,-0.828427 0.671573,-1.5 1.5,-1.5 z"
       id="path6073-6"
       style="opacity:0.1;color:#000000;fill:none;stroke:#000000;stroke-opacity:1;marker:none;visibility:visible;display:inline;overflow:visible;enable-background:accumulate" />
  </g>
</svg>
