<?xml version="1.0" encoding="UTF-8" standalone="no"?>
<!-- Created with Inkscape (http://www.inkscape.org/) -->

<svg
   xmlns:dc="http://purl.org/dc/elements/1.1/"
   xmlns:cc="http://creativecommons.org/ns#"
   xmlns:rdf="http://www.w3.org/1999/02/22-rdf-syntax-ns#"
   xmlns:svg="http://www.w3.org/2000/svg"
   xmlns="http://www.w3.org/2000/svg"
   xmlns:xlink="http://www.w3.org/1999/xlink"
   xmlns:sodipodi="http://sodipodi.sourceforge.net/DTD/sodipodi-0.dtd"
   xmlns:inkscape="http://www.inkscape.org/namespaces/inkscape"
   version="1.1"
   width="24"
   height="24"
   id="svg3235"
   inkscape:version="0.48.4 r9939"
   sodipodi:docname="twitter-mentions.svg">
  <sodipodi:namedview
     pagecolor="#ffffff"
     bordercolor="#666666"
     borderopacity="1"
     objecttolerance="10"
     gridtolerance="10"
     guidetolerance="10"
     inkscape:pageopacity="0"
     inkscape:pageshadow="2"
     inkscape:window-width="1440"
     inkscape:window-height="840"
     id="namedview12"
     showgrid="false"
     inkscape:zoom="19.017296"
     inkscape:cx="5.1290692"
     inkscape:cy="14.234699"
     inkscape:window-x="0"
     inkscape:window-y="27"
     inkscape:window-maximized="1"
     inkscape:current-layer="svg3235" />
  <defs
     id="defs3237">
    <linearGradient
       id="linearGradient6613-8-9-0">
      <stop
         id="stop6615-4-1-9"
         style="stop-color:#868686;stop-opacity:1"
         offset="0" />
      <stop
         id="stop6617-3-0-2"
         style="stop-color:#979797;stop-opacity:1"
         offset="1" />
    </linearGradient>
    <linearGradient
       x1="12.54946"
       y1="2.7817998"
       x2="12.54946"
       y2="22.124352"
       id="linearGradient3233"
       xlink:href="#linearGradient6613-8-9-0"
       gradientUnits="userSpaceOnUse"
       gradientTransform="matrix(0.96202532,0,0,0.96202532,0.4556962,-8.0253174)" />
  </defs>
  <metadata
     id="metadata3240">
    <rdf:RDF>
      <cc:Work
         rdf:about="">
        <dc:format>image/svg+xml</dc:format>
        <dc:type
           rdf:resource="http://purl.org/dc/dcmitype/StillImage" />
        <dc:title></dc:title>
      </cc:Work>
    </rdf:RDF>
  </metadata>
  <path
     inkscape:connector-curvature="0"
     style="color:#000000;fill:#ff5555;fill-opacity:1;fill-rule:nonzero;stroke:none;stroke-width:1.03947364999999992;marker:none;visibility:visible;display:inline;overflow:visible;enable-background:accumulate"
     id="path3059"
     d="M 16.598462,3.2936331 C 15.680972,2.9650328 14.693569,3.3965061 14.276491,4.2533111 11.412214,4.080228 8.6673825,5.79781 7.6516446,8.6372522 6.7473918,11.209184 4.9190199,14.533041 3.9734785,14.705077 3.7823677,14.812874 3.6215596,14.986462 3.541485,15.210308 c -0.1766627,0.493853 0.078456,1.033738 0.5720117,1.210506 l 13.8089203,4.945685 c 0.493557,0.176768 1.033121,-0.0785 1.209785,-0.572353 0.08008,-0.223846 0.06588,-0.460112 -0.01344,-0.664771 -0.621669,-0.733334 0.07323,-4.463147 1.005474,-7.025053 C 21.139972,10.26488 20.107877,7.194586 17.78442,5.509674 18.005459,4.5826576 17.51597,3.6222334 16.59848,3.2936327 z M 10.12962,20.586777 c -0.4402904,1.230808 0.399389,2.65714 1.875479,3.185803 1.476089,0.528664 3.02962,-0.04054 3.469908,-1.271346 z" />
  <path
     inkscape:connector-curvature="0"
     style="opacity:0.1;color:#000000;fill:none;stroke:#000000;stroke-width:0.99999994;stroke-linecap:butt;stroke-linejoin:miter;stroke-miterlimit:4;stroke-opacity:1;stroke-dasharray:none;stroke-dashoffset:0;marker:none;visibility:visible;display:inline;overflow:visible;enable-background:accumulate"
     id="path3215"
     d="M 16.432568,3.7239752 C 15.75252,3.4804145 15.029767,3.8221611 14.717492,4.4636737 a 0.48559431,0.48588419 0 0 1 -0.473125,0.2662916 c -2.644904,-0.1598268 -5.2004421,1.4320571 -6.1506207,4.053548 -0.00283,0.00804 0.00285,0.021538 0,0.029588 C 7.6296711,10.127408 6.960286,11.609364 6.2603882,12.807474 5.908296,13.410197 5.5419249,13.936374 5.195858,14.346045 4.8897708,14.708392 4.6109479,14.991141 4.2200382,15.115333 4.1118736,15.176353 4.0155408,15.291988 3.983476,15.381625 3.892821,15.635044 4.034388,15.88571 4.2791788,15.973384 L 18.088504,20.91457 c 0.25327,0.0907 0.503785,-0.05094 0.591407,-0.295881 0.04078,-0.114013 0.03111,-0.245208 0,-0.325466 -0.221603,-0.343169 -0.258712,-0.740253 -0.266133,-1.213106 -0.0084,-0.536002 0.03868,-1.175057 0.147852,-1.86404 0.218355,-1.377968 0.644988,-2.97478 1.12367,-4.290252 0.94316,-2.636544 -0.03727,-5.4821246 -2.188202,-7.0419298 A 0.48559431,0.48588419 0 0 1 17.319677,5.3808999 C 17.48578,4.6842793 17.117796,3.9693903 16.432568,3.7239752 z M 10.54808,21.240037 c -0.01753,0.826631 0.569659,1.722283 1.626366,2.100745 1.052656,0.377009 2.054961,0.04637 2.572615,-0.591759 L 10.54808,21.240037 z" />
  <path
     transform="translate(4.2711865,3.4576271)"
     inkscape:transform-center-y="-0.25397346"
     inkscape:transform-center-x="0.25397346"
     d="M 7.2743197,7.8844888 3.9702598,6.7640498 1.1741469,8.8506613 1.2187371,5.3620789 -1.6297948,3.3476159 1.7018234,2.3119925 2.7374467,-1.0196256 4.7519098,1.8289063 8.2404921,1.784316 6.1538806,4.580429 z"
     inkscape:randomized="0"
     inkscape:rounded="0"
     inkscape:flatsided="false"
     sodipodi:arg2="1.4137167"
     sodipodi:arg1="0.78539816"
     sodipodi:r2="2.6269"
     sodipodi:r1="5.2537999"
     sodipodi:cy="4.1694913"
     sodipodi:cx="3.5593221"
     sodipodi:sides="5"
     id="path3824"
     style="fill:none;fill-opacity:0.64313728000000003"
     sodipodi:type="star" />
</svg>
