<?xml version="1.0" encoding="UTF-8" standalone="no"?>
<!-- Created with Inkscape (http://www.inkscape.org/) -->

<svg
   xmlns:dc="http://purl.org/dc/elements/1.1/"
   xmlns:cc="http://creativecommons.org/ns#"
   xmlns:rdf="http://www.w3.org/1999/02/22-rdf-syntax-ns#"
   xmlns:svg="http://www.w3.org/2000/svg"
   xmlns="http://www.w3.org/2000/svg"
   xmlns:xlink="http://www.w3.org/1999/xlink"
   xmlns:sodipodi="http://sodipodi.sourceforge.net/DTD/sodipodi-0.dtd"
   xmlns:inkscape="http://www.inkscape.org/namespaces/inkscape"
   version="1.1"
   width="16"
   height="16"
   id="svg3658"
   inkscape:version="0.91+devel+osxmenu r12898"
   sodipodi:docname="birdie.svg">
  <sodipodi:namedview
     pagecolor="#ffffff"
     bordercolor="#666666"
     borderopacity="1"
     objecttolerance="10"
     gridtolerance="10"
     guidetolerance="10"
     inkscape:pageopacity="0"
     inkscape:pageshadow="2"
     inkscape:window-width="1920"
     inkscape:window-height="966"
     id="namedview62"
     showgrid="false"
     inkscape:zoom="1"
     inkscape:cx="8"
     inkscape:cy="8"
     inkscape:window-x="0"
     inkscape:window-y="23"
     inkscape:window-maximized="0"
     inkscape:current-layer="svg3658"
     showguides="true"
     inkscape:guide-bbox="true"
     showborder="false">
    <inkscape:grid
       type="xygrid"
       id="grid13976" />
  </sodipodi:namedview>
  <defs
     id="defs3660">
    <linearGradient
       id="linearGradient14060">
      <stop
         id="stop14064"
         offset="0"
         style="stop-color:#000000;stop-opacity:1;" />
      <stop
         id="stop14062"
         offset="1"
         style="stop-color:#000000;stop-opacity:0;" />
    </linearGradient>
    <linearGradient
       inkscape:collect="always"
       id="linearGradient13987">
      <stop
         style="stop-color:#ffffff;stop-opacity:1;"
         offset="0"
         id="stop13989" />
      <stop
         id="stop14517"
         offset="0.22936442"
         style="stop-color:#ffffff;stop-opacity:0.39069769" />
      <stop
         style="stop-color:#ffffff;stop-opacity:0.2175926"
         offset="1"
         id="stop13991" />
    </linearGradient>
    <linearGradient
       id="linearGradient4102">
      <stop
         style="stop-color:#000000;stop-opacity:1;"
         offset="0"
         id="stop4106" />
      <stop
         style="stop-color:#000000;stop-opacity:0;"
         offset="1"
         id="stop4104" />
    </linearGradient>
    <linearGradient
       inkscape:collect="always"
       xlink:href="#linearGradient4863-0-4"
       id="linearGradient8565"
       gradientUnits="userSpaceOnUse"
       gradientTransform="matrix(-0.28044333,0,0,0.21159623,27.1966,-2.6292716)"
       x1="23.9732"
       y1="97.855995"
       x2="32.677864"
       y2="99.942635" />
    <linearGradient
       id="linearGradient4863-0-4">
      <stop
         style="stop-color:#000000;stop-opacity:1;"
         offset="0"
         id="stop4865-4-4" />
      <stop
         style="stop-color:#000000;stop-opacity:0;"
         offset="1"
         id="stop4867-6-64" />
    </linearGradient>
    <linearGradient
       inkscape:collect="always"
       xlink:href="#linearGradient4907-3-57"
       id="linearGradient8560"
       gradientUnits="userSpaceOnUse"
       gradientTransform="translate(-0.24999999)"
       x1="23.021111"
       y1="3.125"
       x2="32.75"
       y2="-1.75" />
    <linearGradient
       id="linearGradient4907-3-57">
      <stop
         style="stop-color:#3a9ae7;stop-opacity:0;"
         offset="0"
         id="stop4909-5-9" />
      <stop
         style="stop-color:#3a9ae7;stop-opacity:1"
         offset="1"
         id="stop4911-5-2" />
    </linearGradient>
    <filter
       inkscape:collect="always"
       id="filter4919-0-6"
       style="color-interpolation-filters:sRGB">
      <feGaussianBlur
         inkscape:collect="always"
         stdDeviation="0.076960176"
         id="feGaussianBlur4921-1-3" />
    </filter>
    <linearGradient
       inkscape:collect="always"
       xlink:href="#linearGradient4907-69"
       id="linearGradient8558"
       gradientUnits="userSpaceOnUse"
       gradientTransform="translate(74.196483,29.252217)"
       x1="26.521111"
       y1="2.25"
       x2="30.375"
       y2="-0.125" />
    <linearGradient
       id="linearGradient4907-69">
      <stop
         style="stop-color:#3a9ae7;stop-opacity:0;"
         offset="0"
         id="stop4909-9" />
      <stop
         style="stop-color:#3a9ae7;stop-opacity:1"
         offset="1"
         id="stop4911-9" />
    </linearGradient>
    <filter
       inkscape:collect="always"
       id="filter4919-6"
       style="color-interpolation-filters:sRGB">
      <feGaussianBlur
         inkscape:collect="always"
         stdDeviation="0.076960176"
         id="feGaussianBlur4921-3" />
    </filter>
    <linearGradient
       inkscape:collect="always"
       xlink:href="#linearGradient4863-1"
       id="linearGradient8570"
       gradientUnits="userSpaceOnUse"
       gradientTransform="matrix(0.28044333,0,0,0.21159623,-3.1319356,-2.6292767)"
       x1="24.430616"
       y1="98.461983"
       x2="31.95191"
       y2="99.942635" />
    <linearGradient
       id="linearGradient4863-1">
      <stop
         style="stop-color:#000000;stop-opacity:1;"
         offset="0"
         id="stop4865-78" />
      <stop
         style="stop-color:#000000;stop-opacity:0;"
         offset="1"
         id="stop4867-17" />
    </linearGradient>
    <radialGradient
       inkscape:collect="always"
       xlink:href="#linearGradient2867-449-88-871-390-598-476-591-434-148-57-177-3-8-8-5-49-8-7"
       id="radialGradient8574"
       gradientUnits="userSpaceOnUse"
       gradientTransform="matrix(0.04061595,0.64917955,1.2378215,-0.07737964,63.023198,-4.9655504)"
       cx="11.568017"
       cy="-35.941376"
       fx="11.568017"
       fy="-35.941376"
       r="19.99999" />
    <linearGradient
       id="linearGradient2867-449-88-871-390-598-476-591-434-148-57-177-3-8-8-5-49-8-7">
      <stop
         offset="0"
         style="stop-color:#90dbec;stop-opacity:1;"
         id="stop3750-8-9-7-0-29-0-6" />
      <stop
         offset="0.26238"
         style="stop-color:#42baea;stop-opacity:1;"
         id="stop3752-3-2-9-2-2-6-6" />
      <stop
         offset="0.704952"
         style="stop-color:#3689e6;stop-opacity:1;"
         id="stop3754-7-2-1-1-3-5-8" />
      <stop
         offset="1"
         style="stop-color:#2b63a0;stop-opacity:1;"
         id="stop3756-9-3-9-2-7-0-6" />
    </linearGradient>
    <radialGradient
       inkscape:collect="always"
       xlink:href="#linearGradient2867-449-88-871-390-598-476-591-434-148-57-177-3-8-8-5-49-7"
       id="radialGradient8577"
       gradientUnits="userSpaceOnUse"
       gradientTransform="matrix(-0.04061595,0.64917955,-1.2378215,-0.07737964,-38.93311,-4.9655504)"
       cx="11.568017"
       cy="-35.941376"
       fx="11.568017"
       fy="-35.941376"
       r="19.99999" />
    <linearGradient
       id="linearGradient2867-449-88-871-390-598-476-591-434-148-57-177-3-8-8-5-49-7">
      <stop
         offset="0"
         style="stop-color:#90dbec;stop-opacity:1;"
         id="stop3750-8-9-7-0-29-5" />
      <stop
         offset="0.26238"
         style="stop-color:#42baea;stop-opacity:1;"
         id="stop3752-3-2-9-2-2-8" />
      <stop
         offset="0.704952"
         style="stop-color:#3689e6;stop-opacity:1;"
         id="stop3754-7-2-1-1-3-3" />
      <stop
         offset="1"
         style="stop-color:#2b63a0;stop-opacity:1;"
         id="stop3756-9-3-9-2-7-8" />
    </linearGradient>
    <linearGradient
       id="linearGradient4678-1">
      <stop
         style="stop-color:#8bbcf1;stop-opacity:1"
         offset="0"
         id="stop4680-0" />
      <stop
         id="stop4686-3"
         offset="0.5"
         style="stop-color:#6da1db;stop-opacity:1" />
      <stop
         style="stop-color:#185183;stop-opacity:1"
         offset="1"
         id="stop4682-1" />
    </linearGradient>
    <radialGradient
       inkscape:collect="always"
       xlink:href="#linearGradient5203-4"
       id="radialGradient8585"
       gradientUnits="userSpaceOnUse"
       gradientTransform="matrix(-0.14908003,-0.0062395,-0.00416154,0.09934833,-26.001707,-23.679293)"
       cx="-262.26062"
       cy="304.16986"
       fx="-262.26062"
       fy="304.16986"
       r="31.699968" />
    <linearGradient
       inkscape:collect="always"
       id="linearGradient5203-4">
      <stop
         style="stop-color:#fde09a;stop-opacity:1;"
         offset="0"
         id="stop5205-1" />
      <stop
         style="stop-color:#fde09a;stop-opacity:0;"
         offset="1"
         id="stop5207-55" />
    </linearGradient>
    <radialGradient
       inkscape:collect="always"
       xlink:href="#linearGradient4771-7"
       id="radialGradient8590"
       gradientUnits="userSpaceOnUse"
       gradientTransform="matrix(-0.08252223,0,0,0.03079887,-9.838635,0.0539087)"
       cx="-263.26559"
       cy="247.38908"
       fx="-263.26559"
       fy="247.38908"
       r="24.651375" />
    <linearGradient
       id="linearGradient4771-7">
      <stop
         style="stop-color:#9b4d07;stop-opacity:1;"
         offset="0"
         id="stop4773-1" />
      <stop
         id="stop4779-6"
         offset="1"
         style="stop-color:#aa5508;stop-opacity:1;" />
      <stop
         style="stop-color:#663305;stop-opacity:1;"
         offset="1"
         id="stop4775-6" />
    </linearGradient>
    <filter
       inkscape:collect="always"
       id="filter4767-8"
       x="-0.061440427"
       width="1.1228809"
       y="-0.10256713"
       height="1.2051343"
       style="color-interpolation-filters:sRGB">
      <feGaussianBlur
         inkscape:collect="always"
         stdDeviation="1.2621591"
         id="feGaussianBlur4769-5" />
    </filter>
    <radialGradient
       inkscape:collect="always"
       xlink:href="#linearGradient2867-449-88-871-390-598-476-591-434-148-57-177-3-8-8-5-9-6-4"
       id="radialGradient8594"
       gradientUnits="userSpaceOnUse"
       gradientTransform="matrix(-0.00126508,-0.2775313,-0.84009558,0.00382623,-25.76005,8.289319)"
       cx="25.048437"
       cy="-36.019295"
       fx="25.048437"
       fy="-36.019295"
       r="19.99999" />
    <linearGradient
       id="linearGradient2867-449-88-871-390-598-476-591-434-148-57-177-3-8-8-5-9-6-4">
      <stop
         offset="0"
         style="stop-color:#90dbec;stop-opacity:1;"
         id="stop3750-8-9-7-0-2-0-1" />
      <stop
         offset="0.26238"
         style="stop-color:#42baea;stop-opacity:1;"
         id="stop3752-3-2-9-2-6-7-1" />
      <stop
         offset="0.704952"
         style="stop-color:#3689e6;stop-opacity:1;"
         id="stop3754-7-2-1-1-2-3-2" />
      <stop
         offset="1"
         style="stop-color:#2b63a0;stop-opacity:1;"
         id="stop3756-9-3-9-2-4-4-9" />
    </linearGradient>
    <linearGradient
       inkscape:collect="always"
       xlink:href="#linearGradient4990-5-9-1-2"
       id="linearGradient8538"
       gradientUnits="userSpaceOnUse"
       x1="-103.59114"
       y1="-244.76335"
       x2="-82.024384"
       y2="-210.11511" />
    <linearGradient
       id="linearGradient4990-5-9-1-2">
      <stop
         style="stop-color:#000000;stop-opacity:1;"
         offset="0"
         id="stop4992-44-3-9-6" />
      <stop
         style="stop-color:#0b1e38;stop-opacity:1;"
         offset="1"
         id="stop4994-1-9-6-8" />
    </linearGradient>
    <radialGradient
       inkscape:collect="always"
       xlink:href="#linearGradient4929-6-1-6-9"
       id="radialGradient8540"
       gradientUnits="userSpaceOnUse"
       gradientTransform="matrix(0.79634031,0.1956609,-0.21773343,0.74511882,111.06171,182.03687)"
       cx="-85.239548"
       cy="-213.51277"
       fx="-85.239548"
       fy="-213.51277"
       r="25.986174" />
    <linearGradient
       id="linearGradient4929-6-1-6-9">
      <stop
         style="stop-color:#51ffbe;stop-opacity:1;"
         offset="0"
         id="stop4931-7-6-8-91" />
      <stop
         id="stop4939-7-0-0-8"
         offset="0.25"
         style="stop-color:#51e3ff;stop-opacity:0.74901962;" />
      <stop
         id="stop4937-3-9-0-7"
         offset="0.5"
         style="stop-color:#000000;stop-opacity:0.49803922;" />
      <stop
         style="stop-color:#51ffbe;stop-opacity:0;"
         offset="1"
         id="stop4933-3-6-7-1" />
    </linearGradient>
    <radialGradient
       inkscape:collect="always"
       xlink:href="#linearGradient2867-449-88-871-390-598-476-591-434-148-57-177-3-8-8-5-3-1"
       id="radialGradient8534"
       gradientUnits="userSpaceOnUse"
       gradientTransform="matrix(0,0.79033929,-0.84275304,-2.151182e-8,-26.876689,-12.398254)"
       cx="6.5013385"
       cy="-41.63142"
       fx="6.5013385"
       fy="-41.63142"
       r="19.99999" />
    <linearGradient
       id="linearGradient2867-449-88-871-390-598-476-591-434-148-57-177-3-8-8-5-3-1">
      <stop
         offset="0"
         style="stop-color:#90dbec;stop-opacity:1;"
         id="stop3750-8-9-7-0-5-4" />
      <stop
         offset="0.26238"
         style="stop-color:#42baea;stop-opacity:1;"
         id="stop3752-3-2-9-2-5-2" />
      <stop
         offset="0.704952"
         style="stop-color:#3689e6;stop-opacity:1;"
         id="stop3754-7-2-1-1-23-8" />
      <stop
         offset="1"
         style="stop-color:#2b63a0;stop-opacity:1;"
         id="stop3756-9-3-9-2-3-1" />
    </linearGradient>
    <linearGradient
       inkscape:collect="always"
       xlink:href="#linearGradient3707-319-631-407-324-3-8-9-2-3-4"
       id="linearGradient8536"
       gradientUnits="userSpaceOnUse"
       gradientTransform="matrix(0.3680189,0,0,0.36510692,-42.830246,-8.22078)"
       x1="24"
       y1="44"
       x2="24"
       y2="3.8990016" />
    <linearGradient
       id="linearGradient3707-319-631-407-324-3-8-9-2-3-4">
      <stop
         offset="0"
         style="stop-color:#185f9a;stop-opacity:1;"
         id="stop3760-7-3-3-4-8-2" />
      <stop
         offset="1"
         style="stop-color:#599ec9;stop-opacity:1;"
         id="stop3762-8-4-3-2-16-8" />
    </linearGradient>
    <radialGradient
       inkscape:collect="always"
       xlink:href="#linearGradient2867-449-88-871-390-598-476-591-434-148-57-177-3-8-8-5-9-1"
       id="radialGradient8602"
       gradientUnits="userSpaceOnUse"
       gradientTransform="matrix(0,0.27902468,-0.88909589,0,-23.428915,1.322305)"
       cx="-5.1676092"
       cy="-37.741932"
       fx="-5.1676092"
       fy="-37.741932"
       r="19.99999" />
    <linearGradient
       id="linearGradient2867-449-88-871-390-598-476-591-434-148-57-177-3-8-8-5-9-1">
      <stop
         offset="0"
         style="stop-color:#90dbec;stop-opacity:1;"
         id="stop3750-8-9-7-0-2-7" />
      <stop
         offset="0.26238"
         style="stop-color:#42baea;stop-opacity:1;"
         id="stop3752-3-2-9-2-6-5" />
      <stop
         offset="0.704952"
         style="stop-color:#3689e6;stop-opacity:1;"
         id="stop3754-7-2-1-1-2-6" />
      <stop
         offset="1"
         style="stop-color:#2b63a0;stop-opacity:1;"
         id="stop3756-9-3-9-2-4-1" />
    </linearGradient>
    <linearGradient
       inkscape:collect="always"
       xlink:href="#linearGradient4990-5-9-5"
       id="linearGradient8528"
       gradientUnits="userSpaceOnUse"
       x1="-103.59114"
       y1="-244.76335"
       x2="-82.024384"
       y2="-210.11511" />
    <linearGradient
       id="linearGradient4990-5-9-5">
      <stop
         style="stop-color:#000000;stop-opacity:1;"
         offset="0"
         id="stop4992-44-3-4" />
      <stop
         style="stop-color:#0b1e38;stop-opacity:1;"
         offset="1"
         id="stop4994-1-9-8" />
    </linearGradient>
    <radialGradient
       inkscape:collect="always"
       xlink:href="#linearGradient4929-6-1-64"
       id="radialGradient8530"
       gradientUnits="userSpaceOnUse"
       gradientTransform="matrix(0.79634031,0.1956609,-0.21773343,0.74511882,111.06171,182.03687)"
       cx="-79.989975"
       cy="-220.04588"
       fx="-79.989975"
       fy="-220.04588"
       r="25.986174" />
    <linearGradient
       id="linearGradient4929-6-1-64">
      <stop
         style="stop-color:#51ffbe;stop-opacity:1;"
         offset="0"
         id="stop4931-7-6-3" />
      <stop
         id="stop4939-7-0-16"
         offset="0.25"
         style="stop-color:#51e3ff;stop-opacity:0.74901962;" />
      <stop
         id="stop4937-3-9-42"
         offset="0.5"
         style="stop-color:#000000;stop-opacity:0.49803922;" />
      <stop
         style="stop-color:#51ffbe;stop-opacity:0;"
         offset="1"
         id="stop4933-3-6-6" />
    </linearGradient>
    <radialGradient
       inkscape:collect="always"
       xlink:href="#linearGradient2867-449-88-871-390-598-476-591-434-148-57-177-3-8-8-5-5"
       id="radialGradient8524"
       gradientUnits="userSpaceOnUse"
       gradientTransform="matrix(0,0.79486509,-0.84757893,-2.1635007e-8,-35.693056,-35.913806)"
       cx="6.5013385"
       cy="-41.63142"
       fx="6.5013385"
       fy="-41.63142"
       r="19.99999" />
    <linearGradient
       id="linearGradient2867-449-88-871-390-598-476-591-434-148-57-177-3-8-8-5-5">
      <stop
         offset="0"
         style="stop-color:#90dbec;stop-opacity:1;"
         id="stop3750-8-9-7-0-3" />
      <stop
         offset="0.26238"
         style="stop-color:#42baea;stop-opacity:1;"
         id="stop3752-3-2-9-2-4" />
      <stop
         offset="0.704952"
         style="stop-color:#3689e6;stop-opacity:1;"
         id="stop3754-7-2-1-1-9" />
      <stop
         offset="1"
         style="stop-color:#2b63a0;stop-opacity:1;"
         id="stop3756-9-3-9-2-83" />
    </linearGradient>
    <linearGradient
       inkscape:collect="always"
       xlink:href="#linearGradient3707-319-631-407-324-3-8-9-2-47"
       id="linearGradient8526"
       gradientUnits="userSpaceOnUse"
       gradientTransform="matrix(0.3701263,0,0,0.36719767,-51.737963,-31.712409)"
       x1="24"
       y1="44"
       x2="24"
       y2="3.8990016" />
    <linearGradient
       id="linearGradient3707-319-631-407-324-3-8-9-2-47">
      <stop
         offset="0"
         style="stop-color:#124672;stop-opacity:1;"
         id="stop3760-7-3-3-4-01" />
      <stop
         offset="1"
         style="stop-color:#367ba6;stop-opacity:1;"
         id="stop3762-8-4-3-2-87" />
    </linearGradient>
    <linearGradient
       id="linearGradient2867-449-88-871-390-598-476-591-434-148-57-177-3-8-8-5-5-2">
      <stop
         offset="0"
         style="stop-color:#90dbec;stop-opacity:1;"
         id="stop3750-8-9-7-0-3-8" />
      <stop
         offset="0.26238"
         style="stop-color:#42baea;stop-opacity:1;"
         id="stop3752-3-2-9-2-4-4" />
      <stop
         offset="0.704952"
         style="stop-color:#3689e6;stop-opacity:1;"
         id="stop3754-7-2-1-1-9-5" />
      <stop
         offset="1"
         style="stop-color:#2b63a0;stop-opacity:1;"
         id="stop3756-9-3-9-2-83-2" />
    </linearGradient>
    <linearGradient
       id="linearGradient3707-319-631-407-324-19-9">
      <stop
         id="stop3760-38-3"
         style="stop-color:#1f4474;stop-opacity:1;"
         offset="0" />
      <stop
         id="stop3762-3-8"
         style="stop-color:#3468ac;stop-opacity:1;"
         offset="1" />
    </linearGradient>
    <radialGradient
       r="19.99999"
       fy="-128.44936"
       fx="166.7809"
       cy="-128.44936"
       cx="166.7809"
       gradientTransform="matrix(0,1.1718408,-1.244938,-3.1895706e-8,-147.97106,-196.71368)"
       gradientUnits="userSpaceOnUse"
       id="radialGradient8841"
       xlink:href="#linearGradient2867-449-88-871-390-598-476-591-434-148-57-177-3-8-8-5-5-2"
       inkscape:collect="always" />
    <linearGradient
       y2="3.8990016"
       x2="24"
       y1="44"
       x1="24"
       gradientTransform="matrix(0.54364765,0,0,0.54134626,-171.53809,-190.51972)"
       gradientUnits="userSpaceOnUse"
       id="linearGradient8843"
       xlink:href="#linearGradient3707-319-631-407-324-19-9"
       inkscape:collect="always" />
    <linearGradient
       inkscape:collect="always"
       xlink:href="#linearGradient13987"
       id="linearGradient13993"
       x1="24"
       y1="4"
       x2="24"
       y2="44"
       gradientUnits="userSpaceOnUse"
       gradientTransform="matrix(0.49033744,0,0,0.48843876,0.17129479,0.325886)" />
    <clipPath
       clipPathUnits="userSpaceOnUse"
       id="clipPath14016">
      <path
         inkscape:connector-curvature="0"
         id="path14018"
         d="M 25.307137,1.0671006 C 24.221318,1.1886485 22.71742,4.2271943 23.205455,2.00456 21.582072,3.1620894 19.860072,3.9015658 18.108205,4.8915933 14.22517,7.2341582 11.058597,10.830044 9.6646796,15.171564 7.8875078,20.808774 5.6553761,26.457605 5.5009354,32.441035 c 0.051497,3.044679 1.6311807,5.952728 3.9651688,7.874375 0.8545048,1.242112 3.0908498,2.76916 4.9883048,3.167 4.998773,1.325331 10.282362,1.241521 15.388699,0.685533 3.222262,-0.477113 6.87813,-1.35964 8.764223,-4.258766 0.13677,0.762369 1.762441,-1.50425 2.216533,-2.150128 1.999812,-2.816946 1.923811,-6.436181 1.231669,-9.666591 C 41.264795,23.859354 39.889091,19.770309 38.549293,15.69218 37.326256,11.841686 34.885723,8.4254279 31.577261,6.0780751 30.288015,4.8852675 28.204333,4.1215194 27.032045,3.2861349 28.342894,2.7532711 26.833678,2.3105922 26.21682,2.9420197 c 0.987184,-1.7407279 -1.059368,-0.2964514 -1.332015,-0.2367 0.06053,-0.4982586 0.597597,-1.1912331 0.422332,-1.6382191 z"
         style="color:#000000;display:inline;overflow:visible;visibility:visible;fill:url(#radialGradient14020);fill-opacity:1;fill-rule:nonzero;stroke:none;stroke-width:1.00187075;stroke-linecap:round;stroke-linejoin:round;stroke-miterlimit:4;stroke-dasharray:none;stroke-dashoffset:0;stroke-opacity:1;marker:none;enable-background:accumulate" />
    </clipPath>
    <radialGradient
       inkscape:collect="always"
       xlink:href="#linearGradient2867-449-88-871-390-598-476-591-434-148-57-177-3-8-8-5-5-2"
       id="radialGradient14020"
       gradientUnits="userSpaceOnUse"
       gradientTransform="matrix(0,2.2847265,-2.4262287,-6.2186745e-8,-287.90193,-382.83329)"
       cx="166.7809"
       cy="-128.44936"
       fx="166.7809"
       fy="-128.44936"
       r="19.99999" />
    <radialGradient
       inkscape:collect="always"
       xlink:href="#linearGradient4678-1"
       id="radialGradient14529"
       cx="24"
       cy="30.82535"
       fx="24"
       fy="30.82535"
       r="12"
       gradientTransform="matrix(2.8333333,-8.632596e-8,4.7749681e-8,1.5672083,-44,-20.309741)"
       gradientUnits="userSpaceOnUse" />
  </defs>
  <metadata
     id="metadata3663">
    <rdf:RDF>
      <cc:Work
         rdf:about="">
        <dc:format>image/svg+xml</dc:format>
        <dc:type
           rdf:resource="http://purl.org/dc/dcmitype/StillImage" />
        <dc:title></dc:title>
      </cc:Work>
    </rdf:RDF>
  </metadata>
  <g
     id="g14617"
     transform="matrix(0.6863279,0,0,0.6863279,-0.26896032,0.06186037)"
     style="stroke-width:1.45702946">
    <path
       inkscape:connector-curvature="0"
       id="path4745-6-3"
       d="M 12.741679,0.1895946 C 12.184527,0.2519367 11.412853,1.8104129 11.663271,0.6704194 10.830287,1.2641185 9.9467001,1.6433974 9.0477883,2.1511845 7.0553389,3.3526907 5.4305181,5.1970277 4.715276,7.423802 c -0.9118961,2.891336 -2.0572397,5.788633 -2.1364858,8.857546 0.026424,1.561622 0.8369857,3.053166 2.0345935,4.038783 0.4384605,0.637082 1.5859661,1.420308 2.5595815,1.624361 2.5649529,0.679764 5.2760498,0.636778 7.8961958,0.351611 1.653395,-0.244712 3.529282,-0.697362 4.497067,-2.18433 0.07018,0.391021 0.904338,-0.771533 1.13734,-1.102805 1.026136,-1.444817 0.987139,-3.30113 0.631989,-4.958014 C 20.929817,11.879787 20.22392,9.782508 19.536448,7.690827 18.908887,5.715901 17.65661,3.9636953 15.958983,2.7597334 15.29745,2.14794 14.228278,1.7562121 13.626758,1.3277417 14.299376,1.0544348 13.524972,0.8273839 13.208452,1.1512443 13.714993,0.2584215 12.664873,0.9991938 12.524974,1.0298404 12.556032,0.7742826 12.83161,0.4188546 12.741679,0.1895946 Z"
       style="color:#000000;display:inline;overflow:visible;visibility:visible;fill:url(#radialGradient8841);fill-opacity:1;fill-rule:nonzero;stroke:none;stroke-width:1.45975518;stroke-linecap:round;stroke-linejoin:round;stroke-miterlimit:4;stroke-dasharray:none;stroke-dashoffset:0;stroke-opacity:1;marker:none;enable-background:accumulate" />
    <ellipse
       ry="1.4801283"
       rx="1.4919332"
       cy="-17.033733"
       cx="1.3286159"
       transform="matrix(-0.2315878,0.97281401,-0.9338848,-0.35757401,0,0)"
       id="path3269-7"
       style="color:#000000;display:inline;overflow:visible;visibility:visible;fill:url(#radialGradient8524);fill-opacity:1;fill-rule:nonzero;stroke:url(#linearGradient8526);stroke-width:1.46340477;stroke-linecap:round;stroke-linejoin:round;stroke-miterlimit:4;stroke-dasharray:none;stroke-dashoffset:0;stroke-opacity:1;marker:none;enable-background:accumulate" />
    <g
       transform="matrix(0.13645213,0.03666337,-0.02096994,0.14145717,3.0781239,3.7507986)"
       id="g4695-6-04"
       style="stroke-width:2.84016252">
      <circle
         r="25.986174"
         cy="-226.57303"
         cx="-88.741898"
         style="color:#000000;display:inline;overflow:visible;visibility:visible;fill:url(#linearGradient8528);fill-opacity:1;fill-rule:evenodd;stroke:none;stroke-width:27.5495739;marker:none;enable-background:accumulate"
         id="path4859-1-8-2"
         transform="matrix(0.38278113,0,0,0.39059302,125.96292,90.396267)" />
      <ellipse
         ry="9.4575529"
         rx="8.3085051"
         cy="-237.26802"
         cx="-161.04356"
         style="color:#000000;display:inline;overflow:visible;visibility:visible;opacity:0.76381908;fill:#ffffff;fill-opacity:1;fill-rule:evenodd;stroke:none;stroke-width:27.5495739;marker:none;enable-background:accumulate"
         id="path4891-51-1-2"
         transform="matrix(0.18254529,0.16846376,-0.25959989,0.28129929,56.473514,92.679367)" />
      <path
         style="color:#000000;display:inline;overflow:visible;visibility:visible;opacity:0.36616163;fill:url(#radialGradient8530);fill-opacity:1;fill-rule:evenodd;stroke:none;stroke-width:9.37253571;marker:none;enable-background:accumulate"
         d="m 96.830104,-4.0364127 c 1.04183,1.13053 1.67805,2.60618 1.67805,4.21609001 0,3.56456999 -3.09279,6.45236999 -6.90241,6.45236999 -3.80961,0 -6.89122,-2.8878 -6.89122,-6.45236999 0,-1.45885001 0.51489,-2.80689001 1.38719,-3.88783001 -1.66852,1.41895 -2.71845,3.46867001 -2.71845,5.74455 0,4.28403 3.71109,7.75516 8.2896,7.75516 4.57852,0 8.289613,-3.47113 8.289613,-7.75516 0,-2.45789999 -1.226083,-4.65162 -3.132373,-6.07281 z"
         id="path4859-84-5-5-0"
         inkscape:connector-curvature="0" />
    </g>
    <path
       inkscape:connector-curvature="0"
       id="path3269-0-0"
       d="m 13.954628,7.3727837 c -0.133122,0.8889976 0.393535,1.8305733 1.228832,2.1518753 0.882576,0.33949 1.774388,-0.142454 1.994992,-1.0734424 0.05515,-0.2327447 0.06293,-0.471198 0.02986,-0.7039734 -0.1946,0.4168406 -0.585056,0.7316854 -1.104458,0.8238026 C 15.227614,8.72645 14.301069,8.1961247 13.954639,7.3727837 Z"
       style="color:#000000;display:inline;overflow:visible;visibility:visible;fill:url(#radialGradient8602);fill-opacity:1;fill-rule:nonzero;stroke:none;stroke-width:1.45702946;marker:none;enable-background:accumulate" />
    <ellipse
       ry="1.4717008"
       rx="1.4834386"
       cy="6.3743167"
       cx="9.9341927"
       transform="matrix(0.23158784,0.972814,0.9338848,-0.35757403,0,0)"
       id="path3269-8-3"
       style="color:#000000;display:inline;overflow:visible;visibility:visible;fill:url(#radialGradient8534);fill-opacity:1;fill-rule:nonzero;stroke:url(#linearGradient8536);stroke-width:1.46340477;stroke-linecap:round;stroke-linejoin:round;stroke-miterlimit:4;stroke-dasharray:none;stroke-dashoffset:0;stroke-opacity:1;marker:none;enable-background:accumulate" />
    <g
       transform="matrix(-0.13567519,0.03645462,0.02085054,0.14065174,20.703942,3.7729919)"
       id="g4695-6-5-2"
       style="stroke-width:2.84016252">
      <circle
         r="25.986174"
         cy="-226.57303"
         cx="-88.741898"
         style="color:#000000;display:inline;overflow:visible;visibility:visible;fill:url(#linearGradient8538);fill-opacity:1;fill-rule:evenodd;stroke:none;stroke-width:27.5495739;marker:none;enable-background:accumulate"
         id="path4859-1-8-1-8"
         transform="matrix(0.38278113,0,0,0.39059302,125.96292,90.396267)" />
      <ellipse
         ry="9.4575529"
         rx="8.3085051"
         cy="-237.26802"
         cx="-161.04356"
         style="color:#000000;display:inline;overflow:visible;visibility:visible;opacity:0.76381908;fill:#ffffff;fill-opacity:1;fill-rule:evenodd;stroke:none;stroke-width:27.5495739;marker:none;enable-background:accumulate"
         id="path4891-51-1-4-2"
         transform="matrix(-0.11876476,0.24655838,0.32285983,0.1303353,149.99903,68.439086)" />
      <path
         style="color:#000000;display:inline;overflow:visible;visibility:visible;opacity:0.36616163;fill:url(#radialGradient8540);fill-opacity:1;fill-rule:evenodd;stroke:none;stroke-width:9.37253571;marker:none;enable-background:accumulate"
         d="m 96.830104,-4.0364127 c 1.04183,1.13053 1.67805,2.60618 1.67805,4.21609001 0,3.56456999 -3.09279,6.45236999 -6.90241,6.45236999 -3.80961,0 -6.89122,-2.8878 -6.89122,-6.45236999 0,-1.45885001 0.51489,-2.80689001 1.38719,-3.88783001 -1.66852,1.41895 -2.71845,3.46867001 -2.71845,5.74455 0,4.28403 3.71109,7.75516 8.2896,7.75516 4.57852,0 8.289613,-3.47113 8.289613,-7.75516 0,-2.45789999 -1.226083,-4.65162 -3.132373,-6.07281 z"
         id="path4859-84-5-5-1-9"
         inkscape:connector-curvature="0" />
    </g>
    <path
       inkscape:connector-curvature="0"
       id="path3269-0-4-5"
       d="M 9.8899556,7.3739634 C 10.022365,8.2582115 9.4985144,9.194755 8.6676864,9.514339 7.7898211,9.852019 6.9027817,9.372645 6.6833526,8.4466312 6.6284901,8.2151329 6.6207575,7.9779516 6.6536431,7.7464174 6.847206,8.161032 7.2355737,8.4741946 7.7522045,8.5658194 8.6237688,8.7203978 9.5453619,8.1929037 9.8899351,7.3739634 Z"
       style="color:#000000;display:inline;overflow:visible;visibility:visible;fill:url(#radialGradient8594);fill-opacity:1;fill-rule:nonzero;stroke:none;stroke-width:1.45702946;marker:none;enable-background:accumulate" />
    <path
       transform="matrix(-0.08252223,0,0,0.07801593,-9.8386401,-16.19752)"
       inkscape:connector-curvature="0"
       id="path4695-1-8-5"
       d="m -263.60736,332.33085 0,0.026 c -0.49848,0.0608 -6.74587,0.83331 -13.70829,2.45881 -6.67986,1.55951 -10.8513,3.93409 -10.8513,3.93409 0,0 0.57348,7.61469 10.19603,15.81401 7.21692,6.1495 11.27176,7.23475 13.55102,7.29876 0.31409,0.01 0.56883,-0.0243 0.81254,-0.0516 0.009,-8.4e-4 0.0177,8.1e-4 0.0263,0 2.02597,0.18101 6.13266,-0.0995 14.52083,-7.24701 9.62255,-8.19935 10.19603,-15.81402 10.19603,-15.81402 0,0 -4.17144,-2.37456 -10.8513,-3.93407 -6.96242,-1.62552 -13.20956,-2.39818 -13.70829,-2.45883 l 0,-0.026 c 0,0 -0.075,-4.3e-4 -0.0786,0 -0.007,-7.8e-4 -0.10485,0 -0.10485,0 z"
       style="opacity:0.39698492;fill:#000000;fill-opacity:1;stroke:none;stroke-width:2.84016252;filter:url(#filter4767-8)" />
    <path
       inkscape:connector-curvature="0"
       id="path4695-1-0"
       d="m 11.914836,9.86362 0,0.0015 c 0.04115,0.0031 0.556681,0.04283 1.131243,0.12643 0.551231,0.08017 0.89547,0.202279 0.89547,0.202279 0,0 -0.04731,0.391493 -0.841403,0.813067 -0.595559,0.316174 -0.930168,0.371977 -1.118255,0.37526 -0.02591,0 -0.04695,-0.0015 -0.06705,-0.0026 -5.13e-4,-4.2e-5 -10e-4,4.1e-5 -0.0021,0 -0.167189,0.0092 -0.506082,-0.0052 -1.198291,-0.372608 -0.7940788,-0.42156 -0.8414036,-0.813068 -0.8414036,-0.813068 0,0 0.3442346,-0.122081 0.8954756,-0.202263 0.574552,-0.08358 1.09008,-0.123312 1.131242,-0.12643 l 0,-0.0015 c 0,0 0.0062,-1.5e-5 0.0065,0 5.08e-4,-3.1e-5 0.0087,0 0.0087,0 z"
       style="fill:url(#radialGradient8590);fill-opacity:1;stroke:none;stroke-width:1.45702946" />
    <path
       sodipodi:nodetypes="cssccsc"
       inkscape:connector-curvature="0"
       id="path4695-8"
       d="m 9.4818894,10.144604 c 0,0 0.056104,-0.758916 1.0028456,-1.5755328 0.946741,-0.8166169 1.338715,-0.7341269 1.503764,-0.7135083 0.165044,0.020619 -0.04125,1.0310972 -0.04125,1.0310972 l -0.03094,1.8972449 c 0,0 -0.6537,-0.07878 -1.367117,-0.247378 C 9.8919721,10.3812 9.4818997,10.144604 9.4818997,10.144604 Z"
       style="fill:#fbba1e;fill-opacity:1;stroke:none;stroke-width:1.45702946" />
    <path
       inkscape:connector-curvature="0"
       id="path4695-5-5"
       d="m 11.996232,7.8426788 c 0.224253,0.00636 0.623201,0.1144593 1.333246,0.7269207 0.946741,0.8166115 1.003163,1.5750045 1.003163,1.5750045 0,0 -0.410416,0.236499 -1.067626,0.391811 -0.713411,0.168606 -1.366778,0.24749 -1.366778,0.24749 l -0.01288,-0.791397 0,-2.1420997 c 0.03171,-0.00359 0.06677,-0.00898 0.110884,-0.00774 z"
       style="fill:#ea8616;fill-opacity:1;stroke:none;stroke-width:1.45702946" />
    <path
       inkscape:connector-curvature="0"
       id="path4695-9-54"
       d="m 12.000378,7.8865012 c 0.221877,0.00636 0.616592,0.1144643 1.319115,0.7269257 0.45869,0.3998891 0.70377,0.7851711 0.836883,1.0749191 C 14.023253,9.435173 13.778152,9.096868 13.319493,8.7474687 12.685199,8.2642792 12.303609,8.1419469 12.071819,8.1185022 c -0.0021,0.1645543 -0.0063,0.4297452 -0.02807,0.7088767 -0.03063,0.3918161 -0.07144,1.6394451 -0.142883,1.6909971 -0.07144,0.05156 -0.07144,-0.154661 -0.112264,-0.463992 -0.03484,-0.264047 -0.01052,-1.5474817 -0.0026,-1.9358818 -0.227536,0.013951 -0.6136,0.1206755 -1.280841,0.6289665 C 10.045887,9.097365 9.7987491,9.43505 9.6657647,9.688346 9.7987697,9.39849 10.045989,9.013767 10.505198,8.6134269 11.321735,7.9015651 11.721499,7.8736325 11.918716,7.891661 c 10e-4,-8.21e-5 0.0015,8.2e-5 0.0026,0 0.02371,-0.00256 0.04854,-0.00605 0.07909,-0.00518 z m 2.309086,2.2916158 c 2.41e-4,0.0021 0.0026,0.01031 0.0026,0.01031 0,0 -0.0026,-2.1e-5 -0.0026,0 1.59e-4,-0.0051 -1.64e-4,-0.006 0,-0.01031 z"
       style="fill:url(#radialGradient8585);fill-opacity:1;stroke:none;stroke-width:1.45702946" />
    <path
       transform="matrix(0.5131165,0,0,0.512902,-0.24383052,-0.35772348)"
       style="color:#000000;display:inline;overflow:visible;visibility:visible;opacity:0.1;fill:none;fill-opacity:1;fill-rule:nonzero;stroke:#000000;stroke-width:5.68032503;stroke-linecap:round;stroke-linejoin:round;stroke-miterlimit:4;stroke-dasharray:none;stroke-dashoffset:0;stroke-opacity:1;marker:none;enable-background:accumulate"
       d="m 35.620527,45.004334 0,-9.164352 c 0,-1.6897 0.03652,-7.85429 -11.753577,-7.85429 -11.790101,0 -11.652397,6.80203 -11.652397,8.5469 l -0.05193,8.603562 c 1.470416,1.14808 5.625561,2.32086 11.509561,2.41482 6.215806,0.0992 11.131428,-1.66858 11.948343,-2.54664 z"
       id="path14022"
       inkscape:connector-curvature="0"
       sodipodi:nodetypes="cczccsc"
       clip-path="url(#clipPath14016)" />
    <path
       sodipodi:nodetypes="cscczc"
       inkscape:connector-curvature="0"
       id="path4861-1"
       d="m 5.6779572,13.981336 c 0,0 -1.2472325,1.959142 -1.3080266,2.803343 -0.1523135,2.1151 0.5382082,3.556247 0.5382082,3.556247 L 5.8422571,21.2282 c 0,0 -0.6056673,-1.353466 -0.6282034,-3.433914 -0.022526,-2.080449 0.4639035,-3.81295 0.4639035,-3.81295 z"
       style="opacity:0.5;fill:url(#linearGradient8570);fill-opacity:1;stroke:none;stroke-width:1.45702946" />
    <path
       sodipodi:nodetypes="cscczc"
       inkscape:connector-curvature="0"
       id="path4861-08-2"
       d="m 18.386718,13.981336 c 0,0 1.247233,1.959142 1.308022,2.803343 0.152308,2.1151 -0.44438,3.368674 -0.44438,3.368674 L 18.222413,21.2282 c 0,0 0.435898,-1.145361 0.615822,-3.135523 0.179919,-1.990168 -0.451517,-4.111341 -0.451517,-4.111341 z"
       style="opacity:0.5;fill:url(#linearGradient8565);fill-opacity:1;stroke:none;stroke-width:1.45702946" />
    <path
       sodipodi:nodetypes="cscscc"
       inkscape:connector-curvature="0"
       id="path4745-63"
       d="m 5.9505298,13.615899 c 0,0 -1.3200232,2.740425 -1.4215638,3.603152 -0.1015407,0.862732 0.3553949,3.095671 0.3553949,3.095671 0,0 -2.1831108,-1.623956 -2.0308024,-4.415132 0.1523084,-2.791182 1.4469423,-6.343588 1.4469423,-6.343588 z"
       style="color:#000000;display:inline;overflow:visible;visibility:visible;fill:url(#radialGradient8577);fill-opacity:1;fill-rule:nonzero;stroke:none;stroke-width:1.45702946;marker:none;enable-background:accumulate" />
    <path
       transform="matrix(0.5131165,0,0,0.512902,-0.24383052,-0.35772348)"
       clip-path="url(#clipPath14016)"
       sodipodi:nodetypes="cczccsc"
       inkscape:connector-curvature="0"
       id="rect3212-0-9"
       d="m 35.620527,45.004334 0,-9.164352 c 0,-1.6897 0.03652,-7.85429 -11.753577,-7.85429 -11.790101,0 -11.652397,6.80203 -11.652397,8.5469 l -0.05193,8.603562 c 1.470416,1.14808 5.625561,2.32086 11.509561,2.41482 6.215806,0.0992 11.131428,-1.66858 11.948343,-2.54664 z"
       style="color:#000000;display:inline;overflow:visible;visibility:visible;opacity:1;fill:url(#radialGradient14529);fill-opacity:1;fill-rule:nonzero;stroke:none;stroke-width:2.81927919;stroke-linecap:round;stroke-linejoin:round;stroke-miterlimit:4;stroke-dasharray:none;stroke-dashoffset:0;stroke-opacity:1;marker:none;enable-background:accumulate" />
    <path
       transform="matrix(0.18742396,0,0,0.20644768,-14.391046,5.2415835)"
       sodipodi:nodetypes="csccc"
       inkscape:connector-curvature="0"
       id="path4905-95"
       d="m 99.860346,20.588354 c 0,0 7.836134,9.663863 9.086134,14.913863 1.04229,4.377628 -0.75,8.5 -0.75,8.5 l -7.5,-14.75 c 0,0 -2.836134,-2.413863 -0.836134,-8.663863 z"
       style="fill:url(#linearGradient8558);fill-opacity:1;stroke:none;stroke-width:2.84016252;filter:url(#filter4919-6)" />
    <path
       sodipodi:nodetypes="cscscc"
       inkscape:connector-curvature="0"
       id="path4745-3-6"
       d="m 18.139545,13.615899 c 0,0 1.320013,2.740425 1.421553,3.603152 0.101541,0.862732 -0.355389,3.095671 -0.355389,3.095671 0,0 2.18311,-1.623956 2.030802,-4.415132 -0.152313,-2.791182 -1.446947,-6.343588 -1.446947,-6.343588 z"
       style="color:#000000;display:inline;overflow:visible;visibility:visible;fill:url(#radialGradient8574);fill-opacity:1;fill-rule:nonzero;stroke:none;stroke-width:1.45702946;marker:none;enable-background:accumulate" />
    <path
       transform="matrix(-0.20307965,0,0,0.20299476,25.007887,11.071397)"
       sodipodi:nodetypes="csccc"
       inkscape:connector-curvature="0"
       id="path4905-1-4"
       d="m 26.07752,-8.5189916 c 0,0 7.17248,9.518992 8.42248,14.768992 C 35.542292,10.627628 33.75,14.75 33.75,14.75 L 26.25,4.2295072e-7 c 0,0 -2.17248,-2.26899202295072 -0.17248,-8.51899202295072 z"
       style="fill:url(#linearGradient8560);fill-opacity:1;stroke:none;stroke-width:2.84016252;filter:url(#filter4919-0-6)" />
    <path
       sodipodi:nodetypes="ssssssssassss"
       inkscape:connector-curvature="0"
       id="path13985"
       d="M 11.896055,2.1069519 C 11.532504,2.1417338 11.196482,2.2834571 10.884371,2.357281 10.583673,2.4284057 10.045127,2.8620299 9.7855769,2.9654716 8.3371563,3.5427302 7.4790438,4.5932332 6.6485104,5.7825141 5.6350417,7.2337518 4.792023,9.517642 4.2437383,11.43553 3.516726,13.978603 3.3079141,16.172768 3.9070376,17.812335 c 1.1633271,3.183569 5.039954,3.846692 8.0323574,3.745823 1.767997,-0.0596 4.027163,-0.132405 5.672512,-1.05989 1.352961,-0.762666 2.392873,-2.078082 2.749904,-3.522292 C 21.004198,14.377497 19.8389,11.587875 18.934139,9.074611 18.33465,7.4093331 17.86069,5.9779764 16.756089,4.8327247 15.957714,4.0049673 14.683887,3.2264545 13.612003,2.6923713 12.954573,2.3647966 12.508292,2.048378 11.896055,2.1069519 Z"
       style="opacity:0.2;fill:none;fill-rule:evenodd;stroke:url(#linearGradient13993);stroke-width:1.45975506px;stroke-linecap:butt;stroke-linejoin:miter;stroke-opacity:1" />
    <path
       style="color:#000000;display:inline;overflow:visible;visibility:visible;opacity:0.6;fill:none;fill-opacity:1;fill-rule:nonzero;stroke:url(#linearGradient8843);stroke-width:1.45975518;stroke-linecap:round;stroke-linejoin:round;stroke-miterlimit:4;stroke-dasharray:none;stroke-dashoffset:0;stroke-opacity:1;marker:none;enable-background:accumulate"
       d="M 12.741679,0.1895946 C 12.184527,0.2519367 11.412853,1.8104129 11.663271,0.6704194 10.830287,1.2641185 9.9467001,1.6433974 9.0477883,2.1511845 7.0553389,3.3526907 5.4305181,5.1970277 4.715276,7.423802 c -0.9118961,2.891336 -2.0572397,5.788633 -2.1364858,8.857546 0.026424,1.561622 0.8369857,3.053166 2.0345935,4.038783 0.4384605,0.637082 1.5859661,1.420308 2.5595815,1.624361 2.5649529,0.679764 5.2760498,0.636778 7.8961958,0.351611 1.653395,-0.244712 3.529282,-0.697362 4.497067,-2.18433 0.07018,0.391021 0.904338,-0.771533 1.13734,-1.102805 1.026136,-1.444817 0.987139,-3.30113 0.631989,-4.958014 C 20.929817,11.879787 20.22392,9.782508 19.536448,7.690827 18.908887,5.715901 17.65661,3.9636953 15.958983,2.7597334 15.29745,2.14794 14.228278,1.7562121 13.626758,1.3277417 14.299376,1.0544348 13.524972,0.8273839 13.208452,1.1512443 13.714993,0.2584215 12.664873,0.9991938 12.524974,1.0298404 12.556032,0.7742826 12.83161,0.4188546 12.741679,0.1895946 Z"
       id="path13995"
       inkscape:connector-curvature="0" />
  </g>
</svg>
