<?xml version="1.0" encoding="UTF-8" standalone="no"?>
<!-- Created with Inkscape (http://www.inkscape.org/) -->

<svg
   xmlns:dc="http://purl.org/dc/elements/1.1/"
   xmlns:cc="http://creativecommons.org/ns#"
   xmlns:rdf="http://www.w3.org/1999/02/22-rdf-syntax-ns#"
   xmlns:svg="http://www.w3.org/2000/svg"
   xmlns="http://www.w3.org/2000/svg"
   xmlns:xlink="http://www.w3.org/1999/xlink"
   version="1.1"
   width="24"
   height="24"
   id="svg4216">
  <defs
     id="defs4218">
    <linearGradient
       x1="11.588062"
       y1="11.64732"
       x2="13.167681"
       y2="10.08545"
       id="linearGradient3991"
       xlink:href="#linearGradient3985"
       gradientUnits="userSpaceOnUse"
       gradientTransform="translate(0,8)" />
    <linearGradient
       id="linearGradient3985">
      <stop
         id="stop3987"
         style="stop-color:#000000;stop-opacity:1"
         offset="0" />
      <stop
         id="stop3989"
         style="stop-color:#000000;stop-opacity:0"
         offset="1" />
    </linearGradient>
    <linearGradient
       x1="18"
       y1="4"
       x2="18"
       y2="16"
       id="linearGradient4110"
       xlink:href="#linearGradient4104"
       gradientUnits="userSpaceOnUse"
       gradientTransform="translate(0,8)" />
    <linearGradient
       id="linearGradient4104">
      <stop
         id="stop4106"
         style="stop-color:#baff88;stop-opacity:1"
         offset="0" />
      <stop
         id="stop4108"
         style="stop-color:#9cfe69;stop-opacity:1"
         offset="1" />
    </linearGradient>
    <linearGradient
       id="linearGradient3796">
      <stop
         id="stop3798"
         style="stop-color:#548833;stop-opacity:1"
         offset="0" />
      <stop
         id="stop3800"
         style="stop-color:#6e9d4c;stop-opacity:1"
         offset="1" />
    </linearGradient>
    <linearGradient
       x1="19.89023"
       y1="0.017201217"
       x2="19.89023"
       y2="24.140821"
       id="linearGradient4214"
       xlink:href="#linearGradient3796"
       gradientUnits="userSpaceOnUse"
       gradientTransform="translate(0,8)" />
  </defs>
  <metadata
     id="metadata4221">
    <rdf:RDF>
      <cc:Work
         rdf:about="">
        <dc:format>image/svg+xml</dc:format>
        <dc:type
           rdf:resource="http://purl.org/dc/dcmitype/StillImage" />
        <dc:title></dc:title>
      </cc:Work>
    </rdf:RDF>
  </metadata>
  <g
     transform="translate(0,-8)"
     id="layer1">
    <path
       d="M 0,8 24,32 24,8 z"
       id="path2995"
       style="fill:url(#linearGradient4214);fill-opacity:1;stroke:none" />
    <path
       d="m 6.65625,3.03125 a 0.96881671,0.96881671 0 0 0 -0.5625,1.6875 l 3.25,3 A 0.96881671,0.96881671 0 0 0 10,7.96875 l 6.09375,0 0,2.0625 -2.59375,0 a 0.96881671,0.96881671 0 0 0 -0.6875,1.65625 l 5,5 a 0.96881671,0.96881671 0 0 0 1.375,0 l 5,-5 A 0.96881671,0.96881671 0 0 0 23.5,10.03125 l -2.53125,0 0,-6.03125 A 0.96881671,0.96881671 0 0 0 20,3.03125 l -13.25,0 a 0.96881671,0.96881671 0 0 0 -0.09375,0 z"
       transform="translate(0,8)"
       id="path4182"
       style="opacity:0.25;fill:#385527;fill-opacity:1;stroke:none" />
    <path
       d="m 6.75,12 13.25,0 0,7 3.5,0 -5,5 -5,-5 3.565557,0 0,-4 L 10,15 z"
       id="path4102"
       style="fill:url(#linearGradient4110);fill-opacity:1;stroke:none" />
    <path
       d="M 0,8 24,32 24,8 z"
       id="path2995-9"
       style="opacity:0.1;fill:url(#linearGradient3991);fill-opacity:1;stroke:none" />
  </g>
</svg>
