<?xml version="1.0" encoding="UTF-8" standalone="no"?>
<!-- Created with Inkscape (http://www.inkscape.org/) -->

<svg
   xmlns:dc="http://purl.org/dc/elements/1.1/"
   xmlns:cc="http://creativecommons.org/ns#"
   xmlns:rdf="http://www.w3.org/1999/02/22-rdf-syntax-ns#"
   xmlns:svg="http://www.w3.org/2000/svg"
   xmlns="http://www.w3.org/2000/svg"
   xmlns:xlink="http://www.w3.org/1999/xlink"
   xmlns:sodipodi="http://sodipodi.sourceforge.net/DTD/sodipodi-0.dtd"
   xmlns:inkscape="http://www.inkscape.org/namespaces/inkscape"
   version="1.1"
   width="64"
   height="64"
   id="svg3658"
   inkscape:version="0.91+devel+osxmenu r12898"
   sodipodi:docname="birdie.svg">
  <sodipodi:namedview
     pagecolor="#ffffff"
     bordercolor="#666666"
     borderopacity="1"
     objecttolerance="10"
     gridtolerance="10"
     guidetolerance="10"
     inkscape:pageopacity="0"
     inkscape:pageshadow="2"
     inkscape:window-width="1920"
     inkscape:window-height="966"
     id="namedview62"
     showgrid="false"
     inkscape:zoom="1"
     inkscape:cx="31.978707"
     inkscape:cy="20.684118"
     inkscape:window-x="0"
     inkscape:window-y="23"
     inkscape:window-maximized="0"
     inkscape:current-layer="svg3658"
     showguides="true"
     inkscape:guide-bbox="true"
     showborder="true">
    <inkscape:grid
       type="xygrid"
       id="grid13976" />
  </sodipodi:namedview>
  <defs
     id="defs3660">
    <linearGradient
       id="linearGradient14060">
      <stop
         id="stop14064"
         offset="0"
         style="stop-color:#000000;stop-opacity:1;" />
      <stop
         id="stop14062"
         offset="1"
         style="stop-color:#000000;stop-opacity:0;" />
    </linearGradient>
    <linearGradient
       inkscape:collect="always"
       id="linearGradient13987">
      <stop
         style="stop-color:#ffffff;stop-opacity:1;"
         offset="0"
         id="stop13989" />
      <stop
         id="stop14517"
         offset="0.22936442"
         style="stop-color:#ffffff;stop-opacity:0.39069769" />
      <stop
         style="stop-color:#ffffff;stop-opacity:0.2175926"
         offset="1"
         id="stop13991" />
    </linearGradient>
    <linearGradient
       id="linearGradient4102">
      <stop
         style="stop-color:#000000;stop-opacity:1;"
         offset="0"
         id="stop4106" />
      <stop
         style="stop-color:#000000;stop-opacity:0;"
         offset="1"
         id="stop4104" />
    </linearGradient>
    <linearGradient
       inkscape:collect="always"
       xlink:href="#linearGradient4863-0-4"
       id="linearGradient8565"
       gradientUnits="userSpaceOnUse"
       gradientTransform="matrix(-0.54654904,0,0,0.41254709,53.477974,11.571185)"
       x1="23.9732"
       y1="97.855995"
       x2="32.677864"
       y2="99.942635" />
    <linearGradient
       id="linearGradient4863-0-4">
      <stop
         style="stop-color:#000000;stop-opacity:1;"
         offset="0"
         id="stop4865-4-4" />
      <stop
         style="stop-color:#000000;stop-opacity:0;"
         offset="1"
         id="stop4867-6-64" />
    </linearGradient>
    <linearGradient
       inkscape:collect="always"
       xlink:href="#linearGradient4907-3-57"
       id="linearGradient8560"
       gradientUnits="userSpaceOnUse"
       gradientTransform="translate(-0.24999999)"
       x1="23.021111"
       y1="3.125"
       x2="32.75"
       y2="-1.75" />
    <linearGradient
       id="linearGradient4907-3-57">
      <stop
         style="stop-color:#3a9ae7;stop-opacity:0;"
         offset="0"
         id="stop4909-5-9" />
      <stop
         style="stop-color:#3a9ae7;stop-opacity:1"
         offset="1"
         id="stop4911-5-2" />
    </linearGradient>
    <filter
       inkscape:collect="always"
       id="filter4919-0-6"
       style="color-interpolation-filters:sRGB">
      <feGaussianBlur
         inkscape:collect="always"
         stdDeviation="0.076960176"
         id="feGaussianBlur4921-1-3" />
    </filter>
    <linearGradient
       inkscape:collect="always"
       xlink:href="#linearGradient4907-69"
       id="linearGradient8558"
       gradientUnits="userSpaceOnUse"
       gradientTransform="translate(74.196483,29.252217)"
       x1="26.521111"
       y1="2.25"
       x2="30.375"
       y2="-0.125" />
    <linearGradient
       id="linearGradient4907-69">
      <stop
         style="stop-color:#3a9ae7;stop-opacity:0;"
         offset="0"
         id="stop4909-9" />
      <stop
         style="stop-color:#3a9ae7;stop-opacity:1"
         offset="1"
         id="stop4911-9" />
    </linearGradient>
    <filter
       inkscape:collect="always"
       id="filter4919-6"
       style="color-interpolation-filters:sRGB">
      <feGaussianBlur
         inkscape:collect="always"
         stdDeviation="0.076960176"
         id="feGaussianBlur4921-3" />
    </filter>
    <linearGradient
       inkscape:collect="always"
       xlink:href="#linearGradient4863-1"
       id="linearGradient8570"
       gradientUnits="userSpaceOnUse"
       gradientTransform="matrix(0.54654904,0,0,0.41254709,-5.6285562,11.571175)"
       x1="24.430616"
       y1="98.461983"
       x2="31.95191"
       y2="99.942635" />
    <linearGradient
       id="linearGradient4863-1">
      <stop
         style="stop-color:#000000;stop-opacity:1;"
         offset="0"
         id="stop4865-78" />
      <stop
         style="stop-color:#000000;stop-opacity:0;"
         offset="1"
         id="stop4867-17" />
    </linearGradient>
    <radialGradient
       inkscape:collect="always"
       xlink:href="#linearGradient2867-449-88-871-390-598-476-591-434-148-57-177-3-8-8-5-49-8-7"
       id="radialGradient8574"
       gradientUnits="userSpaceOnUse"
       gradientTransform="matrix(0.07915542,1.265699,2.4123595,-0.15086632,123.29954,7.016165)"
       cx="11.568017"
       cy="-35.941376"
       fx="11.568017"
       fy="-35.941376"
       r="19.99999" />
    <linearGradient
       id="linearGradient2867-449-88-871-390-598-476-591-434-148-57-177-3-8-8-5-49-8-7">
      <stop
         offset="0"
         style="stop-color:#90dbec;stop-opacity:1;"
         id="stop3750-8-9-7-0-29-0-6" />
      <stop
         offset="0.26238"
         style="stop-color:#42baea;stop-opacity:1;"
         id="stop3752-3-2-9-2-2-6-6" />
      <stop
         offset="0.704952"
         style="stop-color:#3689e6;stop-opacity:1;"
         id="stop3754-7-2-1-1-3-5-8" />
      <stop
         offset="1"
         style="stop-color:#2b63a0;stop-opacity:1;"
         id="stop3756-9-3-9-2-7-0-6" />
    </linearGradient>
    <radialGradient
       inkscape:collect="always"
       xlink:href="#linearGradient2867-449-88-871-390-598-476-591-434-148-57-177-3-8-8-5-49-7"
       id="radialGradient8577"
       gradientUnits="userSpaceOnUse"
       gradientTransform="matrix(-0.07915542,1.265699,-2.4123595,-0.15086632,-75.400576,7.016165)"
       cx="11.568017"
       cy="-35.941376"
       fx="11.568017"
       fy="-35.941376"
       r="19.99999" />
    <linearGradient
       id="linearGradient2867-449-88-871-390-598-476-591-434-148-57-177-3-8-8-5-49-7">
      <stop
         offset="0"
         style="stop-color:#90dbec;stop-opacity:1;"
         id="stop3750-8-9-7-0-29-5" />
      <stop
         offset="0.26238"
         style="stop-color:#42baea;stop-opacity:1;"
         id="stop3752-3-2-9-2-2-8" />
      <stop
         offset="0.704952"
         style="stop-color:#3689e6;stop-opacity:1;"
         id="stop3754-7-2-1-1-3-3" />
      <stop
         offset="1"
         style="stop-color:#2b63a0;stop-opacity:1;"
         id="stop3756-9-3-9-2-7-8" />
    </linearGradient>
    <linearGradient
       id="linearGradient4678-1">
      <stop
         style="stop-color:#8bbcf1;stop-opacity:1"
         offset="0"
         id="stop4680-0" />
      <stop
         id="stop4686-3"
         offset="0.5"
         style="stop-color:#6da1db;stop-opacity:1" />
      <stop
         style="stop-color:#185183;stop-opacity:1"
         offset="1"
         id="stop4682-1" />
    </linearGradient>
    <radialGradient
       inkscape:collect="always"
       xlink:href="#linearGradient5203-4"
       id="radialGradient8585"
       gradientUnits="userSpaceOnUse"
       gradientTransform="matrix(-0.29053836,-0.01216509,-0.00811032,0.19369846,-50.198886,-29.469836)"
       cx="-262.26062"
       cy="304.16986"
       fx="-262.26062"
       fy="304.16986"
       r="31.699968" />
    <linearGradient
       inkscape:collect="always"
       id="linearGradient5203-4">
      <stop
         style="stop-color:#fde09a;stop-opacity:1;"
         offset="0"
         id="stop5205-1" />
      <stop
         style="stop-color:#fde09a;stop-opacity:0;"
         offset="1"
         id="stop5207-55" />
    </linearGradient>
    <radialGradient
       inkscape:collect="always"
       xlink:href="#linearGradient4771-7"
       id="radialGradient8590"
       gradientUnits="userSpaceOnUse"
       gradientTransform="matrix(-0.16082553,0,0,0.06004825,-18.699076,16.802555)"
       cx="-263.26559"
       cy="247.38908"
       fx="-263.26559"
       fy="247.38908"
       r="24.651375" />
    <linearGradient
       id="linearGradient4771-7">
      <stop
         style="stop-color:#9b4d07;stop-opacity:1;"
         offset="0"
         id="stop4773-1" />
      <stop
         id="stop4779-6"
         offset="1"
         style="stop-color:#aa5508;stop-opacity:1;" />
      <stop
         style="stop-color:#663305;stop-opacity:1;"
         offset="1"
         id="stop4775-6" />
    </linearGradient>
    <filter
       inkscape:collect="always"
       id="filter4767-8"
       x="-0.061440427"
       width="1.1228809"
       y="-0.10256713"
       height="1.2051343"
       style="color-interpolation-filters:sRGB">
      <feGaussianBlur
         inkscape:collect="always"
         stdDeviation="1.2621591"
         id="feGaussianBlur4769-5" />
    </filter>
    <radialGradient
       inkscape:collect="always"
       xlink:href="#linearGradient2867-449-88-871-390-598-476-591-434-148-57-177-3-8-8-5-9-6-4"
       id="radialGradient8594"
       gradientUnits="userSpaceOnUse"
       gradientTransform="matrix(-0.00246548,-0.54110006,-1.6372414,0.00745997,-49.727926,32.859054)"
       cx="25.048437"
       cy="-36.019295"
       fx="25.048437"
       fy="-36.019295"
       r="19.99999" />
    <linearGradient
       id="linearGradient2867-449-88-871-390-598-476-591-434-148-57-177-3-8-8-5-9-6-4">
      <stop
         offset="0"
         style="stop-color:#90dbec;stop-opacity:1;"
         id="stop3750-8-9-7-0-2-0-1" />
      <stop
         offset="0.26238"
         style="stop-color:#42baea;stop-opacity:1;"
         id="stop3752-3-2-9-2-6-7-1" />
      <stop
         offset="0.704952"
         style="stop-color:#3689e6;stop-opacity:1;"
         id="stop3754-7-2-1-1-2-3-2" />
      <stop
         offset="1"
         style="stop-color:#2b63a0;stop-opacity:1;"
         id="stop3756-9-3-9-2-4-4-9" />
    </linearGradient>
    <linearGradient
       inkscape:collect="always"
       xlink:href="#linearGradient4990-5-9-1-2"
       id="linearGradient8538"
       gradientUnits="userSpaceOnUse"
       x1="-103.59114"
       y1="-244.76335"
       x2="-82.024384"
       y2="-210.11511" />
    <linearGradient
       id="linearGradient4990-5-9-1-2">
      <stop
         style="stop-color:#000000;stop-opacity:1;"
         offset="0"
         id="stop4992-44-3-9-6" />
      <stop
         style="stop-color:#0b1e38;stop-opacity:1;"
         offset="1"
         id="stop4994-1-9-6-8" />
    </linearGradient>
    <radialGradient
       inkscape:collect="always"
       xlink:href="#linearGradient4929-6-1-6-9"
       id="radialGradient8540"
       gradientUnits="userSpaceOnUse"
       gradientTransform="matrix(0.79634031,0.1956609,-0.21773343,0.74511882,111.06171,182.03687)"
       cx="-85.239548"
       cy="-213.51277"
       fx="-85.239548"
       fy="-213.51277"
       r="25.986174" />
    <linearGradient
       id="linearGradient4929-6-1-6-9">
      <stop
         style="stop-color:#51ffbe;stop-opacity:1;"
         offset="0"
         id="stop4931-7-6-8-91" />
      <stop
         id="stop4939-7-0-0-8"
         offset="0.25"
         style="stop-color:#51e3ff;stop-opacity:0.74901962;" />
      <stop
         id="stop4937-3-9-0-7"
         offset="0.5"
         style="stop-color:#000000;stop-opacity:0.49803922;" />
      <stop
         style="stop-color:#51ffbe;stop-opacity:0;"
         offset="1"
         id="stop4933-3-6-7-1" />
    </linearGradient>
    <radialGradient
       inkscape:collect="always"
       xlink:href="#linearGradient2867-449-88-871-390-598-476-591-434-148-57-177-3-8-8-5-3-1"
       id="radialGradient8534"
       gradientUnits="userSpaceOnUse"
       gradientTransform="matrix(0,1.540355,-1.6430705,-4.1926094e-8,-36.498666,-27.597004)"
       cx="6.5013385"
       cy="-41.63142"
       fx="6.5013385"
       fy="-41.63142"
       r="19.99999" />
    <linearGradient
       id="linearGradient2867-449-88-871-390-598-476-591-434-148-57-177-3-8-8-5-3-1">
      <stop
         offset="0"
         style="stop-color:#90dbec;stop-opacity:1;"
         id="stop3750-8-9-7-0-5-4" />
      <stop
         offset="0.26238"
         style="stop-color:#42baea;stop-opacity:1;"
         id="stop3752-3-2-9-2-5-2" />
      <stop
         offset="0.704952"
         style="stop-color:#3689e6;stop-opacity:1;"
         id="stop3754-7-2-1-1-23-8" />
      <stop
         offset="1"
         style="stop-color:#2b63a0;stop-opacity:1;"
         id="stop3756-9-3-9-2-3-1" />
    </linearGradient>
    <linearGradient
       inkscape:collect="always"
       xlink:href="#linearGradient3707-319-631-407-324-3-8-9-2-3-4"
       id="linearGradient8536"
       gradientUnits="userSpaceOnUse"
       gradientTransform="matrix(0.71750675,0,0,0.71158586,-67.602461,-19.455193)"
       x1="24"
       y1="44"
       x2="24"
       y2="3.8990016" />
    <linearGradient
       id="linearGradient3707-319-631-407-324-3-8-9-2-3-4">
      <stop
         offset="0"
         style="stop-color:#185f9a;stop-opacity:1;"
         id="stop3760-7-3-3-4-8-2" />
      <stop
         offset="1"
         style="stop-color:#599ec9;stop-opacity:1;"
         id="stop3762-8-4-3-2-16-8" />
    </linearGradient>
    <radialGradient
       inkscape:collect="always"
       xlink:href="#linearGradient2867-449-88-871-390-598-476-591-434-148-57-177-3-8-8-5-9-1"
       id="radialGradient8602"
       gradientUnits="userSpaceOnUse"
       gradientTransform="matrix(0,0.54401169,-1.7327369,-1.5223741e-8,-45.184836,19.275535)"
       cx="-5.1676092"
       cy="-37.741932"
       fx="-5.1676092"
       fy="-37.741932"
       r="19.99999" />
    <linearGradient
       id="linearGradient2867-449-88-871-390-598-476-591-434-148-57-177-3-8-8-5-9-1">
      <stop
         offset="0"
         style="stop-color:#90dbec;stop-opacity:1;"
         id="stop3750-8-9-7-0-2-7" />
      <stop
         offset="0.26238"
         style="stop-color:#42baea;stop-opacity:1;"
         id="stop3752-3-2-9-2-6-5" />
      <stop
         offset="0.704952"
         style="stop-color:#3689e6;stop-opacity:1;"
         id="stop3754-7-2-1-1-2-6" />
      <stop
         offset="1"
         style="stop-color:#2b63a0;stop-opacity:1;"
         id="stop3756-9-3-9-2-4-1" />
    </linearGradient>
    <linearGradient
       inkscape:collect="always"
       xlink:href="#linearGradient4990-5-9-5"
       id="linearGradient8528"
       gradientUnits="userSpaceOnUse"
       x1="-103.59114"
       y1="-244.76335"
       x2="-82.024384"
       y2="-210.11511" />
    <linearGradient
       id="linearGradient4990-5-9-5">
      <stop
         style="stop-color:#000000;stop-opacity:1;"
         offset="0"
         id="stop4992-44-3-4" />
      <stop
         style="stop-color:#0b1e38;stop-opacity:1;"
         offset="1"
         id="stop4994-1-9-8" />
    </linearGradient>
    <radialGradient
       inkscape:collect="always"
       xlink:href="#linearGradient4929-6-1-64"
       id="radialGradient8530"
       gradientUnits="userSpaceOnUse"
       gradientTransform="matrix(0.79634031,0.1956609,-0.21773343,0.74511882,111.06171,182.03687)"
       cx="-79.989975"
       cy="-220.04588"
       fx="-79.989975"
       fy="-220.04588"
       r="25.986174" />
    <linearGradient
       id="linearGradient4929-6-1-64">
      <stop
         style="stop-color:#51ffbe;stop-opacity:1;"
         offset="0"
         id="stop4931-7-6-3" />
      <stop
         id="stop4939-7-0-16"
         offset="0.25"
         style="stop-color:#51e3ff;stop-opacity:0.74901962;" />
      <stop
         id="stop4937-3-9-42"
         offset="0.5"
         style="stop-color:#000000;stop-opacity:0.49803922;" />
      <stop
         style="stop-color:#51ffbe;stop-opacity:0;"
         offset="1"
         id="stop4933-3-6-6" />
    </linearGradient>
    <radialGradient
       inkscape:collect="always"
       xlink:href="#linearGradient2867-449-88-871-390-598-476-591-434-148-57-177-3-8-8-5-5"
       id="radialGradient8524"
       gradientUnits="userSpaceOnUse"
       gradientTransform="matrix(0,1.5491757,-1.6524793,-4.2166183e-8,-54.030417,-74.361042)"
       cx="6.5013385"
       cy="-41.63142"
       fx="6.5013385"
       fy="-41.63142"
       r="19.99999" />
    <linearGradient
       id="linearGradient2867-449-88-871-390-598-476-591-434-148-57-177-3-8-8-5-5">
      <stop
         offset="0"
         style="stop-color:#90dbec;stop-opacity:1;"
         id="stop3750-8-9-7-0-3" />
      <stop
         offset="0.26238"
         style="stop-color:#42baea;stop-opacity:1;"
         id="stop3752-3-2-9-2-4" />
      <stop
         offset="0.704952"
         style="stop-color:#3689e6;stop-opacity:1;"
         id="stop3754-7-2-1-1-9" />
      <stop
         offset="1"
         style="stop-color:#2b63a0;stop-opacity:1;"
         id="stop3756-9-3-9-2-83" />
    </linearGradient>
    <linearGradient
       inkscape:collect="always"
       xlink:href="#linearGradient3707-319-631-407-324-3-8-9-2-47"
       id="linearGradient8526"
       gradientUnits="userSpaceOnUse"
       gradientTransform="matrix(0.72161544,0,0,0.7156607,-85.312315,-66.172607)"
       x1="24"
       y1="44"
       x2="24"
       y2="3.8990016" />
    <linearGradient
       id="linearGradient3707-319-631-407-324-3-8-9-2-47">
      <stop
         offset="0"
         style="stop-color:#124672;stop-opacity:1;"
         id="stop3760-7-3-3-4-01" />
      <stop
         offset="1"
         style="stop-color:#367ba6;stop-opacity:1;"
         id="stop3762-8-4-3-2-87" />
    </linearGradient>
    <linearGradient
       id="linearGradient2867-449-88-871-390-598-476-591-434-148-57-177-3-8-8-5-5-2">
      <stop
         offset="0"
         style="stop-color:#90dbec;stop-opacity:1;"
         id="stop3750-8-9-7-0-3-8" />
      <stop
         offset="0.26238"
         style="stop-color:#42baea;stop-opacity:1;"
         id="stop3752-3-2-9-2-4-4" />
      <stop
         offset="0.704952"
         style="stop-color:#3689e6;stop-opacity:1;"
         id="stop3754-7-2-1-1-9-5" />
      <stop
         offset="1"
         style="stop-color:#2b63a0;stop-opacity:1;"
         id="stop3756-9-3-9-2-83-2" />
    </linearGradient>
    <linearGradient
       id="linearGradient3707-319-631-407-324-19-9">
      <stop
         id="stop3760-38-3"
         style="stop-color:#1f4474;stop-opacity:1;"
         offset="0" />
      <stop
         id="stop3762-3-8"
         style="stop-color:#3468ac;stop-opacity:1;"
         offset="1" />
    </linearGradient>
    <radialGradient
       r="19.99999"
       fy="-128.44936"
       fx="166.7809"
       cy="-128.44936"
       cx="166.7809"
       gradientTransform="matrix(0,2.2847265,-2.4262287,-6.2186745e-8,-287.90193,-366.83329)"
       gradientUnits="userSpaceOnUse"
       id="radialGradient8841"
       xlink:href="#linearGradient2867-449-88-871-390-598-476-591-434-148-57-177-3-8-8-5-5-2"
       inkscape:collect="always" />
    <linearGradient
       y2="3.8990016"
       x2="24"
       y1="44"
       x1="24"
       gradientTransform="matrix(1.0595014,0,0,1.0554575,-333.83113,-354.75698)"
       gradientUnits="userSpaceOnUse"
       id="linearGradient8843"
       xlink:href="#linearGradient3707-319-631-407-324-19-9"
       inkscape:collect="always" />
    <linearGradient
       inkscape:collect="always"
       xlink:href="#linearGradient13987"
       id="linearGradient13993"
       x1="24"
       y1="4"
       x2="24"
       y2="44"
       gradientUnits="userSpaceOnUse"
       gradientTransform="matrix(1.0037882,0,0,0.99995695,-0.21104151,16.268691)" />
    <clipPath
       clipPathUnits="userSpaceOnUse"
       id="clipPath14016">
      <path
         inkscape:connector-curvature="0"
         id="path14018"
         d="M 25.307137,1.0671006 C 24.221318,1.1886485 22.71742,4.2271943 23.205455,2.00456 21.582072,3.1620894 19.860072,3.9015658 18.108205,4.8915933 14.22517,7.2341582 11.058597,10.830044 9.6646796,15.171564 7.8875078,20.808774 5.6553761,26.457605 5.5009354,32.441035 c 0.051497,3.044679 1.6311807,5.952728 3.9651688,7.874375 0.8545048,1.242112 3.0908498,2.76916 4.9883048,3.167 4.998773,1.325331 10.282362,1.241521 15.388699,0.685533 3.222262,-0.477113 6.87813,-1.35964 8.764223,-4.258766 0.13677,0.762369 1.762441,-1.50425 2.216533,-2.150128 1.999812,-2.816946 1.923811,-6.436181 1.231669,-9.666591 C 41.264795,23.859354 39.889091,19.770309 38.549293,15.69218 37.326256,11.841686 34.885723,8.4254279 31.577261,6.0780751 30.288015,4.8852675 28.204333,4.1215194 27.032045,3.2861349 28.342894,2.7532711 26.833678,2.3105922 26.21682,2.9420197 c 0.987184,-1.7407279 -1.059368,-0.2964514 -1.332015,-0.2367 0.06053,-0.4982586 0.597597,-1.1912331 0.422332,-1.6382191 z"
         style="color:#000000;display:inline;overflow:visible;visibility:visible;fill:url(#radialGradient14020);fill-opacity:1;fill-rule:nonzero;stroke:none;stroke-width:1.00187075;stroke-linecap:round;stroke-linejoin:round;stroke-miterlimit:4;stroke-dasharray:none;stroke-dashoffset:0;stroke-opacity:1;marker:none;enable-background:accumulate" />
    </clipPath>
    <radialGradient
       inkscape:collect="always"
       xlink:href="#linearGradient2867-449-88-871-390-598-476-591-434-148-57-177-3-8-8-5-5-2"
       id="radialGradient14020"
       gradientUnits="userSpaceOnUse"
       gradientTransform="matrix(0,2.2847265,-2.4262287,-6.2186745e-8,-287.90193,-382.83329)"
       cx="166.7809"
       cy="-128.44936"
       fx="166.7809"
       fy="-128.44936"
       r="19.99999" />
    <radialGradient
       inkscape:collect="always"
       xlink:href="#linearGradient4102"
       id="radialGradient23521"
       cx="128"
       cy="40"
       fx="128"
       fy="40"
       r="56"
       gradientTransform="matrix(1,0,0,0.25892856,-192,-95.857144)"
       gradientUnits="userSpaceOnUse" />
    <radialGradient
       inkscape:collect="always"
       xlink:href="#linearGradient14060"
       id="radialGradient23531"
       cx="128"
       cy="36"
       fx="128"
       fy="36"
       r="88"
       gradientTransform="matrix(0.94999999,0,0,0.22727273,-185.6,-96.181818)"
       gradientUnits="userSpaceOnUse" />
    <radialGradient
       inkscape:collect="always"
       xlink:href="#linearGradient4678-1"
       id="radialGradient14529"
       cx="24"
       cy="30.82535"
       fx="24"
       fy="30.82535"
       r="12"
       gradientTransform="matrix(2.8333333,-8.632596e-8,4.7749681e-8,1.5672083,-44,-20.309741)"
       gradientUnits="userSpaceOnUse" />
  </defs>
  <metadata
     id="metadata3663">
    <rdf:RDF>
      <cc:Work
         rdf:about="">
        <dc:format>image/svg+xml</dc:format>
        <dc:type
           rdf:resource="http://purl.org/dc/dcmitype/StillImage" />
        <dc:title></dc:title>
      </cc:Work>
    </rdf:RDF>
  </metadata>
  <g
     id="g24263"
     transform="matrix(1.3157895,0,0,1.3157895,0.42105163,-20.10609)"
     style="stroke-width:0.75999993">
    <g
       transform="matrix(0.22727273,0,0,0.22727273,38.545455,78.454546)"
       id="g14070"
       style="stroke-width:0.75999993">
      <ellipse
         style="opacity:0.5;fill:url(#radialGradient23531);fill-opacity:1;stroke:none;stroke-width:1.48151267;stroke-linecap:round;stroke-linejoin:round;stroke-miterlimit:4;stroke-dasharray:none;stroke-dashoffset:0;stroke-opacity:1;marker:none"
         id="path23523"
         cx="-64"
         cy="-88"
         rx="83.599998"
         ry="20" />
      <ellipse
         style="opacity:0.6;fill:url(#radialGradient23521);fill-opacity:1;stroke:none;stroke-width:2.04636264;stroke-linecap:round;stroke-linejoin:round;stroke-miterlimit:4;stroke-dasharray:none;stroke-dashoffset:0;stroke-opacity:1;marker:none"
         id="path23513"
         cx="-64"
         cy="-85.5"
         rx="56"
         ry="14.5" />
    </g>
    <path
       inkscape:connector-curvature="0"
       id="path4745-6-3"
       d="m 25.307137,17.067101 c -1.085819,0.121547 -2.589717,3.160093 -2.101682,0.937459 -1.623383,1.157529 -3.345383,1.897006 -5.09725,2.887033 -3.883035,2.342565 -7.049608,5.938451 -8.4435254,10.279971 -1.7771718,5.63721 -4.0093035,11.286041 -4.1637442,17.269471 0.051497,3.044679 1.6311807,5.952728 3.9651688,7.874375 0.8545048,1.242112 3.0908498,2.76916 4.9883048,3.167 4.998773,1.325331 10.282362,1.241521 15.388699,0.685533 3.222262,-0.477113 6.87813,-1.35964 8.764223,-4.258766 0.13677,0.762369 1.762441,-1.50425 2.216533,-2.150128 1.999812,-2.816946 1.923811,-6.436181 1.231669,-9.666591 -0.790738,-4.233104 -2.166442,-8.322149 -3.50624,-12.400278 -1.223037,-3.850494 -3.66357,-7.266752 -6.972032,-9.614105 -1.289246,-1.192808 -3.372928,-1.956556 -4.545216,-2.79194 1.310849,-0.532864 -0.198367,-0.975543 -0.815225,-0.344115 0.987184,-1.740728 -1.059368,-0.296452 -1.332015,-0.2367 0.06053,-0.498259 0.597597,-1.191233 0.422332,-1.638219 z"
       style="color:#000000;display:inline;overflow:visible;visibility:visible;fill:url(#radialGradient8841);fill-opacity:1;fill-rule:nonzero;stroke:none;stroke-width:0.76142174;stroke-linecap:round;stroke-linejoin:round;stroke-miterlimit:4;stroke-dasharray:none;stroke-dashoffset:0;stroke-opacity:1;marker:none;enable-background:accumulate" />
    <ellipse
       ry="2.8847396"
       rx="2.9087424"
       cy="-37.564171"
       cx="18.148756"
       transform="matrix(-0.23149619,0.97283581,-0.93383486,-0.35770442,0,0)"
       id="path3269-7"
       style="color:#000000;display:inline;overflow:visible;visibility:visible;fill:url(#radialGradient8524);fill-opacity:1;fill-rule:nonzero;stroke:url(#linearGradient8526);stroke-width:0.76333731;stroke-linecap:round;stroke-linejoin:round;stroke-miterlimit:4;stroke-dasharray:none;stroke-dashoffset:0;stroke-opacity:1;marker:none;enable-background:accumulate" />
    <g
       transform="matrix(0.26592816,0.07148222,-0.04086779,0.27579765,6.4740745,24.010345)"
       id="g4695-6-04"
       style="stroke-width:0.75999993">
      <circle
         r="25.986174"
         cy="-226.57303"
         cx="-88.741898"
         style="color:#000000;display:inline;overflow:visible;visibility:visible;fill:url(#linearGradient8528);fill-opacity:1;fill-rule:evenodd;stroke:none;stroke-width:7.37199974;marker:none;enable-background:accumulate"
         id="path4859-1-8-2"
         transform="matrix(0.38278113,0,0,0.39059302,125.96292,90.396267)" />
      <ellipse
         ry="9.4575529"
         rx="8.3085051"
         cy="-237.26802"
         cx="-161.04356"
         style="color:#000000;display:inline;overflow:visible;visibility:visible;opacity:0.76381908;fill:#ffffff;fill-opacity:1;fill-rule:evenodd;stroke:none;stroke-width:7.37199974;marker:none;enable-background:accumulate"
         id="path4891-51-1-2"
         transform="matrix(0.18254529,0.16846376,-0.25959989,0.28129929,56.473514,92.679367)" />
      <path
         style="color:#000000;display:inline;overflow:visible;visibility:visible;opacity:0.36616163;fill:url(#radialGradient8530);fill-opacity:1;fill-rule:evenodd;stroke:none;stroke-width:2.5079999;marker:none;enable-background:accumulate"
         d="m 96.830104,-4.0364127 c 1.04183,1.13053 1.67805,2.60618 1.67805,4.21609001 0,3.56456999 -3.09279,6.45236999 -6.90241,6.45236999 -3.80961,0 -6.89122,-2.8878 -6.89122,-6.45236999 0,-1.45885001 0.51489,-2.80689001 1.38719,-3.88783001 -1.66852,1.41895 -2.71845,3.46867001 -2.71845,5.74455 0,4.28403 3.71109,7.75516 8.2896,7.75516 4.57852,0 8.289613,-3.47113 8.289613,-7.75516 0,-2.45789999 -1.226083,-4.65162 -3.132373,-6.07281 z"
         id="path4859-84-5-5-0"
         inkscape:connector-curvature="0" />
    </g>
    <path
       inkscape:connector-curvature="0"
       id="path3269-0-0"
       d="m 27.671024,31.072094 c -0.25944,1.73327 0.76695,3.56905 2.39484,4.19549 1.72003,0.6619 3.45806,-0.27774 3.88799,-2.09288 0.10749,-0.45378 0.12264,-0.91869 0.0582,-1.37253 -0.37925,0.81271 -1.1402,1.42656 -2.15245,1.60616 -1.70769,0.30299 -3.51341,-0.73098 -4.18856,-2.33624 z"
       style="color:#000000;display:inline;overflow:visible;visibility:visible;fill:url(#radialGradient8602);fill-opacity:1;fill-rule:nonzero;stroke:none;stroke-width:0.75999993;marker:none;enable-background:accumulate" />
    <ellipse
       ry="2.8683145"
       rx="2.8921809"
       cy="8.9903498"
       cx="35.269539"
       transform="matrix(0.23149622,0.9728358,0.93383485,-0.35770444,0,0)"
       id="path3269-8-3"
       style="color:#000000;display:inline;overflow:visible;visibility:visible;fill:url(#radialGradient8534);fill-opacity:1;fill-rule:nonzero;stroke:url(#linearGradient8536);stroke-width:0.76333731;stroke-linecap:round;stroke-linejoin:round;stroke-miterlimit:4;stroke-dasharray:none;stroke-dashoffset:0;stroke-opacity:1;marker:none;enable-background:accumulate" />
    <g
       transform="matrix(-0.26441401,0.07107522,0.0406351,0.27422732,40.824594,24.053615)"
       id="g4695-6-5-2"
       style="stroke-width:0.75999993">
      <circle
         r="25.986174"
         cy="-226.57303"
         cx="-88.741898"
         style="color:#000000;display:inline;overflow:visible;visibility:visible;fill:url(#linearGradient8538);fill-opacity:1;fill-rule:evenodd;stroke:none;stroke-width:7.37199974;marker:none;enable-background:accumulate"
         id="path4859-1-8-1-8"
         transform="matrix(0.38278113,0,0,0.39059302,125.96292,90.396267)" />
      <ellipse
         ry="9.4575529"
         rx="8.3085051"
         cy="-237.26802"
         cx="-161.04356"
         style="color:#000000;display:inline;overflow:visible;visibility:visible;opacity:0.76381908;fill:#ffffff;fill-opacity:1;fill-rule:evenodd;stroke:none;stroke-width:7.37199974;marker:none;enable-background:accumulate"
         id="path4891-51-1-4-2"
         transform="matrix(-0.11876476,0.24655838,0.32285983,0.1303353,149.99903,68.439086)" />
      <path
         style="color:#000000;display:inline;overflow:visible;visibility:visible;opacity:0.36616163;fill:url(#radialGradient8540);fill-opacity:1;fill-rule:evenodd;stroke:none;stroke-width:2.5079999;marker:none;enable-background:accumulate"
         d="m 96.830104,-4.0364127 c 1.04183,1.13053 1.67805,2.60618 1.67805,4.21609001 0,3.56456999 -3.09279,6.45236999 -6.90241,6.45236999 -3.80961,0 -6.89122,-2.8878 -6.89122,-6.45236999 0,-1.45885001 0.51489,-2.80689001 1.38719,-3.88783001 -1.66852,1.41895 -2.71845,3.46867001 -2.71845,5.74455 0,4.28403 3.71109,7.75516 8.2896,7.75516 4.57852,0 8.289613,-3.47113 8.289613,-7.75516 0,-2.45789999 -1.226083,-4.65162 -3.132373,-6.07281 z"
         id="path4859-84-5-5-1-9"
         inkscape:connector-curvature="0" />
    </g>
    <path
       inkscape:connector-curvature="0"
       id="path3269-0-4-5"
       d="m 19.749484,31.074394 c 0.25805,1.72401 -0.76287,3.54998 -2.38205,4.17307 -1.71085,0.65837 -3.439579,-0.27626 -3.867219,-2.0817 -0.10692,-0.45135 -0.12199,-0.91378 -0.0579,-1.3652 0.37723,0.80837 1.13411,1.41894 2.140959,1.59758 1.69857,0.30138 3.49464,-0.72707 4.16617,-2.32375 z"
       style="color:#000000;display:inline;overflow:visible;visibility:visible;fill:url(#radialGradient8594);fill-opacity:1;fill-rule:nonzero;stroke:none;stroke-width:0.75999993;marker:none;enable-background:accumulate" />
    <path
       transform="matrix(-0.16082553,0,0,0.1521069,-18.699086,-14.882696)"
       inkscape:connector-curvature="0"
       id="path4695-1-8-5"
       d="m -263.60736,332.33085 0,0.026 c -0.49848,0.0608 -6.74587,0.83331 -13.70829,2.45881 -6.67986,1.55951 -10.8513,3.93409 -10.8513,3.93409 0,0 0.57348,7.61469 10.19603,15.81401 7.21692,6.1495 11.27176,7.23475 13.55102,7.29876 0.31409,0.01 0.56883,-0.0243 0.81254,-0.0516 0.009,-8.4e-4 0.0177,8.1e-4 0.0263,0 2.02597,0.18101 6.13266,-0.0995 14.52083,-7.24701 9.62255,-8.19935 10.19603,-15.81402 10.19603,-15.81402 0,0 -4.17144,-2.37456 -10.8513,-3.93407 -6.96242,-1.62552 -13.20956,-2.39818 -13.70829,-2.45883 l 0,-0.026 c 0,0 -0.075,-4.3e-4 -0.0786,0 -0.007,-7.8e-4 -0.10485,0 -0.10485,0 z"
       style="opacity:0.39698492;fill:#000000;fill-opacity:1;stroke:none;stroke-width:0.75999993;filter:url(#filter4767-8)" />
    <path
       inkscape:connector-curvature="0"
       id="path4695-1-0"
       d="m 23.695724,35.928454 0,0.003 c 0.0802,0.006 1.0849,0.0835 2.20465,0.2465 1.07428,0.1563 1.74516,0.39438 1.74516,0.39438 0,0 -0.0922,0.76329 -1.63979,1.58523 -1.16067,0.61644 -1.81278,0.72524 -2.17934,0.73164 -0.0505,0 -0.0915,-0.003 -0.13068,-0.005 -10e-4,-8e-5 -0.002,8e-5 -0.004,0 -0.32583,0.018 -0.98629,-0.0102 -2.33532,-0.72647 -1.54756,-0.82191 -1.63979,-1.58523 -1.63979,-1.58523 0,0 0.67087,-0.23802 1.74517,-0.39435 1.11973,-0.16295 2.12443,-0.24042 2.20465,-0.2465 l 0,-0.003 c 0,0 0.0121,-3e-5 0.0127,0 9.9e-4,-6e-5 0.0169,0 0.0169,0 z"
       style="fill:url(#radialGradient8590);fill-opacity:1;stroke:none;stroke-width:0.75999993" />
    <path
       sodipodi:nodetypes="cssccsc"
       inkscape:connector-curvature="0"
       id="path4695-8"
       d="m 18.954214,36.476284 c 0,0 0.10934,-1.47965 1.95442,-3.0718 1.84508,-1.59215 2.60899,-1.43132 2.93065,-1.39112 0.32165,0.0402 -0.0804,2.01032 -0.0804,2.01032 l -0.0603,3.69904 c 0,0 -1.27398,-0.15359 -2.66434,-0.48231 -1.28083,-0.30284 -2.08001,-0.76413 -2.08001,-0.76413 z"
       style="fill:#fbba1e;fill-opacity:1;stroke:none;stroke-width:0.75999993" />
    <path
       inkscape:connector-curvature="0"
       id="path4695-5-5"
       d="m 23.854354,31.988244 c 0.43704,0.0124 1.21454,0.22316 2.59833,1.41727 1.84508,1.59214 1.95504,3.07077 1.95504,3.07077 0,0 -0.79985,0.4611 -2.08067,0.76391 -1.39035,0.32873 -2.66368,0.48253 -2.66368,0.48253 l -0.0251,-1.54298 0,-4.17643 c 0.0618,-0.007 0.13012,-0.0175 0.2161,-0.0151 z"
       style="fill:#ea8616;fill-opacity:1;stroke:none;stroke-width:0.75999993" />
    <path
       inkscape:connector-curvature="0"
       id="path4695-9-54"
       d="m 23.862434,32.073684 c 0.43241,0.0124 1.20166,0.22317 2.57079,1.41728 0.89393,0.77966 1.37156,1.53084 1.63098,2.09576 -0.25944,-0.49361 -0.73711,-1.1532 -1.63098,-1.83442 -1.23616,-0.94207 -1.97983,-1.18058 -2.43156,-1.22629 -0.004,0.32083 -0.0122,0.83787 -0.0547,1.38209 -0.0597,0.76392 -0.13923,3.19641 -0.27846,3.29692 -0.13923,0.10052 -0.13923,-0.30154 -0.21879,-0.90464 -0.0679,-0.51481 -0.0205,-3.01711 -0.005,-3.77437 -0.44344,0.0272 -1.19583,0.23528 -2.4962,1.22629 -0.89514,0.68219 -1.37678,1.34057 -1.63595,1.83442 0.25921,-0.56513 0.74101,-1.31522 1.63595,-2.09576 1.59133,-1.38791 2.37042,-1.44237 2.75477,-1.40722 0.002,-1.6e-4 0.003,1.6e-4 0.005,0 0.0462,-0.005 0.0946,-0.0118 0.15414,-0.0101 z m 4.50012,4.46794 c 4.7e-4,0.004 0.005,0.0201 0.005,0.0201 0,0 -0.005,-4e-5 -0.005,0 3.1e-4,-0.01 -3.2e-4,-0.0116 0,-0.0201 z"
       style="fill:url(#radialGradient8585);fill-opacity:1;stroke:none;stroke-width:0.75999993" />
    <path
       transform="translate(0,16)"
       style="color:#000000;display:inline;overflow:visible;visibility:visible;opacity:0.1;fill:none;fill-opacity:1;fill-rule:nonzero;stroke:#000000;stroke-width:1.51999986;stroke-linecap:round;stroke-linejoin:round;stroke-miterlimit:4;stroke-dasharray:none;stroke-dashoffset:0;stroke-opacity:1;marker:none;enable-background:accumulate"
       d="m 36.214149,45.004334 0,-9.70627 c 0,-1.6897 -0.557098,-7.85429 -12.347199,-7.85429 -11.790101,0 -11.975645,6.80203 -11.975645,8.5469 l -0.05193,9.14548 c 1.470416,1.14808 5.948809,2.32086 11.832809,2.41482 6.215806,0.0992 11.72505,-1.66858 12.541983,-2.54664 z"
       id="path14022"
       inkscape:connector-curvature="0"
       sodipodi:nodetypes="cczccscc"
       clip-path="url(#clipPath14016)" />
    <path
       sodipodi:nodetypes="cscczc"
       inkscape:connector-curvature="0"
       id="path4861-1"
       d="m 11.540825,43.956724 c 0,0 -2.4307005,3.81972 -2.5491805,5.46565 -0.29684,4.12379 1.0489005,6.93358 1.0489005,6.93358 l 1.82048,1.72991 c 0,0 -1.18037,-2.63884 -1.22429,-6.69507 -0.0439,-4.05623 0.90409,-7.43407 0.90409,-7.43407 z"
       style="opacity:0.5;fill:url(#linearGradient8570);fill-opacity:1;stroke:none;stroke-width:0.75999993" />
    <path
       sodipodi:nodetypes="cscczc"
       inkscape:connector-curvature="0"
       id="path4861-08-2"
       d="m 36.308614,43.956724 c 0,0 2.4307,3.81972 2.54917,5.46565 0.29683,4.12379 -0.86604,6.56787 -0.86604,6.56787 l -2.00334,2.09562 c 0,0 0.84951,-2.2331 1.20016,-6.1133 0.35064,-3.88021 -0.87995,-8.01584 -0.87995,-8.01584 z"
       style="opacity:0.5;fill:url(#linearGradient8565);fill-opacity:1;stroke:none;stroke-width:0.75999993" />
    <path
       sodipodi:nodetypes="cscscc"
       inkscape:connector-curvature="0"
       id="path4745-63"
       d="m 12.072035,43.244234 c 0,0 -2.5725605,5.34298 -2.7704505,7.02503 -0.19789,1.68206 0.6926203,6.0356 0.6926203,6.0356 0,0 -4.2546103,-3.16621 -3.9577803,-8.60814 0.29683,-5.44194 2.81991,-12.36803 2.81991,-12.36803 z"
       style="color:#000000;display:inline;overflow:visible;visibility:visible;fill:url(#radialGradient8577);fill-opacity:1;fill-rule:nonzero;stroke:none;stroke-width:0.75999993;marker:none;enable-background:accumulate" />
    <path
       transform="translate(0,16)"
       clip-path="url(#clipPath14016)"
       sodipodi:nodetypes="cczccscc"
       inkscape:connector-curvature="0"
       id="rect3212-0-9"
       d="m 36.214149,45.004334 0,-9.70627 c 0,-1.6897 -0.557098,-7.85429 -12.347199,-7.85429 -11.790101,0 -11.975645,6.80203 -11.975645,8.5469 l -0.05193,9.14548 c 1.470416,1.14808 5.948809,2.32086 11.832809,2.41482 6.215806,0.0992 11.72505,-1.66858 12.541983,-2.54664 z"
       style="color:#000000;display:inline;overflow:visible;visibility:visible;opacity:1;fill:url(#radialGradient14529);fill-opacity:1;fill-rule:nonzero;stroke:none;stroke-width:0.754412;stroke-linecap:round;stroke-linejoin:round;stroke-miterlimit:4;stroke-dasharray:none;stroke-dashoffset:0;stroke-opacity:1;marker:none;enable-background:accumulate" />
    <path
       transform="matrix(0.3652659,0,0,0.40250902,-27.571156,26.916914)"
       sodipodi:nodetypes="csccc"
       inkscape:connector-curvature="0"
       id="path4905-95"
       d="m 99.860346,20.588354 c 0,0 7.836134,9.663863 9.086134,14.913863 1.04229,4.377628 -0.75,8.5 -0.75,8.5 l -7.5,-14.75 c 0,0 -2.836134,-2.413863 -0.836134,-8.663863 z"
       style="fill:url(#linearGradient8558);fill-opacity:1;stroke:none;stroke-width:0.75999993;filter:url(#filter4919-6)" />
    <path
       sodipodi:nodetypes="cscscc"
       inkscape:connector-curvature="0"
       id="path4745-3-6"
       d="m 35.826904,43.244234 c 0,0 2.57254,5.34298 2.77043,7.02503 0.19789,1.68206 -0.69261,6.0356 -0.69261,6.0356 0,0 4.25461,-3.16621 3.95778,-8.60814 -0.29684,-5.44194 -2.81992,-12.36803 -2.81992,-12.36803 z"
       style="color:#000000;display:inline;overflow:visible;visibility:visible;fill:url(#radialGradient8574);fill-opacity:1;fill-rule:nonzero;stroke:none;stroke-width:0.75999993;marker:none;enable-background:accumulate" />
    <path
       transform="matrix(-0.39577689,0,0,0.39577689,49.212444,38.283244)"
       sodipodi:nodetypes="csccc"
       inkscape:connector-curvature="0"
       id="path4905-1-4"
       d="m 26.07752,-8.5189916 c 0,0 7.17248,9.518992 8.42248,14.768992 C 35.542292,10.627628 33.75,14.75 33.75,14.75 L 26.25,4.2295072e-7 c 0,0 -2.17248,-2.26899202295072 -0.17248,-8.51899202295072 z"
       style="fill:url(#linearGradient8560);fill-opacity:1;stroke:none;stroke-width:0.75999993;filter:url(#filter4919-0-6)" />
    <path
       sodipodi:nodetypes="ssssssssassss"
       inkscape:connector-curvature="0"
       id="path13985"
       d="m 23.416362,19.486647 c -0.744241,0.07121 -1.432122,0.361351 -2.071056,0.512487 -0.615572,0.14561 -1.718049,1.033347 -2.249384,1.245119 -2.965118,1.181793 -4.721789,3.493063 -6.422005,5.927821 -2.074712,2.971048 -3.4256916,7.914456 -4.548106,11.840854 -1.4882943,5.206309 -2.0228443,8.734565 -0.7963561,12.09117 2.3814891,6.517568 10.4245611,8.838898 16.5504221,8.632392 3.619334,-0.12201 8.244157,-0.271065 11.612412,-2.16986 2.769697,-1.561368 4.854968,-4.261609 5.629434,-7.211018 1.389415,-5.291331 -0.588597,-11.084339 -2.440766,-16.229622 -1.227238,-3.409241 -2.1975,-6.500213 -4.458769,-8.844834 -1.634383,-1.694627 -4.456249,-3.663231 -6.650544,-4.756634 -1.345849,-0.670628 -2.901949,-1.157791 -4.155282,-1.037875 z"
       style="opacity:0.2;fill:none;fill-rule:evenodd;stroke:url(#linearGradient13993);stroke-width:0.76142174px;stroke-linecap:butt;stroke-linejoin:miter;stroke-opacity:1" />
    <path
       style="color:#000000;display:inline;overflow:visible;visibility:visible;opacity:0.6;fill:none;fill-opacity:1;fill-rule:nonzero;stroke:url(#linearGradient8843);stroke-width:0.76142174;stroke-linecap:round;stroke-linejoin:round;stroke-miterlimit:4;stroke-dasharray:none;stroke-dashoffset:0;stroke-opacity:1;marker:none;enable-background:accumulate"
       d="m 25.307137,17.067101 c -1.085819,0.121547 -2.589717,3.160093 -2.101682,0.937459 -1.623383,1.157529 -3.345383,1.897006 -5.09725,2.887033 -3.883035,2.342565 -7.049608,5.938451 -8.4435254,10.279971 -1.7771718,5.63721 -4.0093035,11.286041 -4.1637442,17.269471 0.051497,3.044679 1.6311807,5.952728 3.9651688,7.874375 0.8545048,1.242112 3.0908498,2.76916 4.9883048,3.167 4.998773,1.325331 10.282362,1.241521 15.388699,0.685533 3.222262,-0.477113 6.87813,-1.35964 8.764223,-4.258766 0.13677,0.762369 1.762441,-1.50425 2.216533,-2.150128 1.999812,-2.816946 1.923811,-6.436181 1.231669,-9.666591 -0.790738,-4.233104 -2.166442,-8.322149 -3.50624,-12.400278 -1.223037,-3.850494 -3.66357,-7.266752 -6.972032,-9.614105 -1.289246,-1.192808 -3.372928,-1.956556 -4.545216,-2.79194 1.310849,-0.532864 -0.198367,-0.975543 -0.815225,-0.344115 0.987184,-1.740728 -1.059368,-0.296452 -1.332015,-0.2367 0.06053,-0.498259 0.597597,-1.191233 0.422332,-1.638219 z"
       id="path13995"
       inkscape:connector-curvature="0" />
  </g>
</svg>
